<svg width="1224" height="1071" viewBox="0 0 1224 1071" fill="none" xmlns="http://www.w3.org/2000/svg">
<rect x="27.1902" y="311.412" width="100.889" height="100.889" rx="25.2222" transform="rotate(-14.7585 27.1902 311.412)" fill="#F9FAFB"/>
<line x1="76.0643" y1="351.517" x2="101.979" y2="344.69" stroke="#6B7280" stroke-width="4.72917" stroke-linecap="round"/>
<path d="M429.238 207.4L432.94 221.453L425.508 223.41L421.806 209.358L429.238 207.4ZM448.826 285.429L452.201 298.244L444.77 300.201L441.394 287.387L448.826 285.429ZM449.95 268.424C449.473 266.614 448.733 265.161 447.732 264.067C446.762 262.964 445.417 262.112 443.697 261.513C442.008 260.905 439.82 260.462 437.132 260.186C432.585 259.685 428.506 258.96 424.893 258.01C421.304 257.02 418.285 255.421 415.835 253.213C413.377 250.974 411.605 247.79 410.517 243.661C409.48 239.723 409.517 236.063 410.63 232.679C411.742 229.295 413.745 226.391 416.637 223.964C419.554 221.498 423.219 219.683 427.633 218.52C431 217.634 434.182 217.339 437.181 217.635C440.172 217.9 442.907 218.742 445.386 220.161C447.857 221.547 449.98 223.484 451.756 225.971C453.532 228.458 454.889 231.48 455.826 235.037L442.154 238.638C441.652 236.733 441.002 235.104 440.204 233.752C439.407 232.4 438.481 231.336 437.428 230.561C436.406 229.777 435.293 229.289 434.088 229.097C432.874 228.874 431.616 228.933 430.314 229.276C428.377 229.787 426.889 230.586 425.852 231.675C424.814 232.763 424.181 234.034 423.952 235.486C423.747 236.899 423.862 238.431 424.297 240.082C424.723 241.702 425.381 243.04 426.271 244.096C427.192 245.144 428.517 245.984 430.246 246.615C431.966 247.215 434.235 247.704 437.051 248.083C441.598 248.583 445.67 249.344 449.268 250.366C452.865 251.388 455.889 253.003 458.338 255.21C460.788 257.418 462.556 260.586 463.644 264.715C464.723 268.811 464.691 272.556 463.546 275.948C462.394 279.308 460.304 282.202 457.275 284.63C454.239 287.026 450.465 288.818 445.956 290.006C443.034 290.776 440.028 291.16 436.937 291.159C433.838 291.127 430.883 290.547 428.073 289.419C425.263 288.291 422.778 286.467 420.62 283.945C418.453 281.391 416.809 277.987 415.688 273.731L429.407 270.117C430.018 272.435 430.83 274.293 431.843 275.69C432.848 277.056 433.964 278.069 435.191 278.731C436.442 279.352 437.752 279.686 439.123 279.733C440.494 279.779 441.83 279.631 443.132 279.288C445.165 278.752 446.736 277.948 447.846 276.874C448.987 275.793 449.724 274.529 450.056 273.083C450.412 271.597 450.376 270.044 449.95 268.424Z" fill="#6B7280"/>
<path d="M517.226 195.835L535.536 265.338L521.816 268.952L507.673 215.265L492.571 224.847L489.722 214.034L515.749 196.224L517.226 195.835ZM594.057 206.314L597.22 218.318C598.592 223.527 599.22 228.167 599.104 232.239C598.98 236.279 598.187 239.782 596.727 242.748C595.29 245.673 593.293 248.084 590.736 249.981C588.179 251.877 585.154 253.285 581.661 254.205C578.866 254.942 576.17 255.278 573.572 255.216C570.966 255.121 568.494 254.567 566.155 253.553C563.848 252.53 561.69 251.044 559.682 249.094C557.698 247.103 555.913 244.585 554.33 241.538C552.746 238.491 551.402 234.871 550.297 230.679L547.135 218.675C545.763 213.467 545.143 208.858 545.276 204.85C545.432 200.801 546.228 197.314 547.665 194.388C549.134 191.454 551.151 189.055 553.716 187.191C556.273 185.294 559.298 183.886 562.792 182.966C565.587 182.23 568.271 181.913 570.845 182.016C573.443 182.079 575.907 182.601 578.237 183.584C580.568 184.566 582.725 186.052 584.71 188.042C586.686 190.001 588.467 192.504 590.05 195.551C591.626 198.566 592.961 202.154 594.057 206.314ZM583.93 223.755L579.801 208.083C579.14 205.574 578.42 203.42 577.64 201.622C576.893 199.815 576.077 198.332 575.195 197.172C574.303 195.98 573.352 195.076 572.34 194.46C571.329 193.843 570.265 193.478 569.148 193.365C568.032 193.251 566.854 193.358 565.615 193.684C564.059 194.094 562.757 194.76 561.709 195.681C560.693 196.594 559.948 197.826 559.474 199.377C558.991 200.897 558.816 202.811 558.949 205.119C559.105 207.388 559.593 210.078 560.413 213.19L564.541 228.863C565.202 231.372 565.911 233.545 566.667 235.384C567.455 237.214 568.298 238.741 569.198 239.964C570.121 241.148 571.077 242.067 572.065 242.724C573.076 243.341 574.14 243.706 575.257 243.819C576.405 243.924 577.599 243.813 578.837 243.487C580.362 243.086 581.632 242.428 582.648 241.515C583.687 240.562 584.444 239.31 584.919 237.759C585.416 236.167 585.583 234.221 585.419 231.921C585.254 229.621 584.758 226.899 583.93 223.755ZM650.078 191.556L653.241 203.56C654.613 208.769 655.241 213.409 655.125 217.481C655.001 221.521 654.208 225.024 652.748 227.99C651.311 230.915 649.315 233.326 646.757 235.223C644.2 237.119 641.175 238.527 637.682 239.447C634.887 240.184 632.191 240.52 629.593 240.458C626.987 240.363 624.515 239.809 622.176 238.795C619.869 237.772 617.711 236.286 615.703 234.336C613.719 232.345 611.934 229.827 610.351 226.78C608.767 223.733 607.423 220.113 606.318 215.921L603.156 203.917C601.784 198.709 601.164 194.1 601.297 190.092C601.453 186.043 602.249 182.556 603.686 179.63C605.155 176.696 607.172 174.297 609.737 172.433C612.294 170.536 615.319 169.128 618.813 168.208C621.608 167.472 624.292 167.155 626.866 167.258C629.464 167.321 631.928 167.843 634.258 168.826C636.589 169.808 638.746 171.294 640.731 173.284C642.707 175.243 644.488 177.746 646.071 180.793C647.647 183.808 648.982 187.396 650.078 191.556ZM639.951 208.997L635.822 193.325C635.161 190.816 634.441 188.662 633.661 186.864C632.914 185.057 632.098 183.574 631.216 182.414C630.324 181.222 629.373 180.318 628.361 179.702C627.35 179.085 626.286 178.72 625.169 178.607C624.053 178.493 622.875 178.6 621.636 178.926C620.08 179.336 618.778 180.002 617.73 180.923C616.714 181.836 615.969 183.068 615.495 184.619C615.012 186.139 614.837 188.053 614.97 190.361C615.126 192.63 615.614 195.32 616.434 198.432L620.562 214.105C621.223 216.614 621.932 218.787 622.688 220.626C623.476 222.456 624.319 223.983 625.219 225.206C626.142 226.39 627.098 227.309 628.086 227.966C629.097 228.583 630.161 228.948 631.278 229.061C632.426 229.166 633.62 229.055 634.858 228.729C636.383 228.328 637.653 227.67 638.669 226.757C639.708 225.804 640.465 224.552 640.94 223.001C641.437 221.409 641.604 219.463 641.44 217.163C641.275 214.863 640.779 212.141 639.951 208.997Z" fill="#1D3A70"/>
<line x1="657.947" y1="146.878" x2="682.845" y2="241.389" stroke="black" stroke-width="3.15278" stroke-linecap="round"/>
<rect x="926.575" y="74.4811" width="100.889" height="100.889" rx="25.2222" transform="rotate(-14.7585 926.575 74.4811)" fill="#F9FAFB"/>
<path d="M984.458 96.1833L991.954 124.638M973.978 114.159L1002.43 106.663" stroke="#1DAB87" stroke-width="4.72917" stroke-linecap="round" stroke-linejoin="round"/>
<line x1="91.2788" y1="542.315" x2="1082.13" y2="281.289" stroke="#F3F4F6" stroke-width="6.30556" stroke-linecap="round"/>
<line x1="91.2788" y1="542.315" x2="341.277" y2="476.456" stroke="#FF6C10" stroke-width="6.30556" stroke-linecap="round"/>
<rect x="313.347" y="444.69" width="75.6667" height="75.6667" rx="18.9167" transform="rotate(-14.7585 313.347 444.69)" fill="#FF6C10"/>
<path d="M365.945 461.806L375.575 467.42L369.961 477.05" stroke="white" stroke-width="4.72917" stroke-linecap="round" stroke-linejoin="round"/>
<path d="M349.178 466.224L343.564 475.853L353.194 481.467" stroke="white" stroke-width="4.72917" stroke-linecap="round" stroke-linejoin="round"/>
<rect x="90.6714" y="576.127" width="228.976" height="226.615" rx="50.359" transform="rotate(-13.7338 90.6714 576.127)" fill="#F9FAFB"/>
<path d="M211.17 638.117L212.892 645.164L209.166 646.074L207.443 639.028L211.17 638.117ZM220.249 677.234L221.819 683.66L218.093 684.571L216.523 678.145L220.249 677.234ZM220.962 668.758C220.74 667.85 220.384 667.118 219.894 666.563C219.42 666.004 218.756 665.567 217.903 665.253C217.065 664.934 215.977 664.694 214.638 664.532C212.374 664.241 210.344 663.843 208.55 663.337C206.767 662.81 205.275 661.985 204.072 660.862C202.865 659.722 202.009 658.117 201.503 656.047C201.02 654.073 201.072 652.246 201.657 650.567C202.242 648.889 203.268 647.457 204.733 646.272C206.211 645.067 208.056 644.194 210.27 643.653C211.958 643.24 213.549 643.122 215.043 643.296C216.533 643.455 217.89 643.9 219.115 644.63C220.336 645.344 221.378 646.33 222.242 647.587C223.106 648.844 223.756 650.364 224.192 652.147L217.337 653.823C217.103 652.867 216.794 652.049 216.408 651.367C216.021 650.685 215.569 650.146 215.05 649.749C214.548 649.349 213.996 649.096 213.396 648.989C212.793 648.867 212.164 648.885 211.512 649.045C210.54 649.282 209.791 649.668 209.263 650.202C208.735 650.736 208.408 651.364 208.281 652.087C208.166 652.79 208.21 653.556 208.412 654.384C208.61 655.196 208.927 655.87 209.361 656.405C209.812 656.936 210.466 657.367 211.323 657.697C212.176 658.012 213.304 658.276 214.706 658.491C216.971 658.781 218.996 659.197 220.783 659.739C222.569 660.281 224.063 661.114 225.266 662.238C226.469 663.362 227.323 664.958 227.829 667.029C228.331 669.083 228.282 670.951 227.68 672.634C227.075 674.3 226.006 675.726 224.473 676.911C222.936 678.08 221.037 678.94 218.776 679.493C217.311 679.851 215.807 680.016 214.265 679.988C212.718 679.944 211.249 679.628 209.856 679.04C208.464 678.452 207.24 677.52 206.185 676.242C205.127 674.948 204.337 673.234 203.815 671.1L210.694 669.419C210.978 670.582 211.367 671.516 211.86 672.222C212.35 672.913 212.898 673.428 213.504 673.77C214.123 674.091 214.774 674.269 215.457 674.305C216.141 674.34 216.809 674.278 217.462 674.119C218.481 673.869 219.273 673.482 219.836 672.956C220.415 672.426 220.794 671.802 220.973 671.084C221.164 670.345 221.16 669.57 220.962 668.758ZM238.273 657.414L232.458 657.443L230.132 639.33L249.671 634.555L251.031 640.12L237.153 643.512L238.179 651.438C238.575 651.054 239.205 650.596 240.071 650.064C240.932 649.516 241.944 649.1 243.107 648.816C244.795 648.403 246.356 648.3 247.79 648.506C249.224 648.713 250.518 649.207 251.671 649.988C252.84 650.765 253.84 651.82 254.672 653.153C255.504 654.485 256.143 656.067 256.591 657.898C256.969 659.443 257.09 660.974 256.954 662.492C256.815 663.994 256.394 665.414 255.691 666.75C254.985 668.07 253.975 669.22 252.662 670.199C251.348 671.178 249.688 671.913 247.682 672.403C246.185 672.769 244.682 672.9 243.171 672.797C241.677 672.689 240.265 672.334 238.937 671.731C237.624 671.123 236.481 670.28 235.509 669.202C234.548 668.103 233.856 666.754 233.431 665.153L240.262 663.484C240.599 664.448 241.062 665.237 241.651 665.853C242.252 666.448 242.95 666.852 243.744 667.062C244.538 667.273 245.405 667.264 246.345 667.034C247.22 666.82 247.928 666.47 248.467 665.984C249.007 665.498 249.395 664.913 249.634 664.231C249.868 663.532 249.975 662.764 249.956 661.925C249.948 661.066 249.83 660.167 249.6 659.227C249.371 658.287 249.051 657.463 248.641 656.753C248.232 656.043 247.728 655.466 247.13 655.021C246.532 654.577 245.837 654.291 245.047 654.164C244.272 654.032 243.415 654.081 242.476 654.311C241.202 654.622 240.263 655.063 239.66 655.632C239.072 656.197 238.61 656.791 238.273 657.414Z" fill="#1D3A70"/>
<rect x="349.79" y="512.799" width="228.976" height="226.615" rx="50.359" transform="rotate(-13.7338 349.79 512.799)" fill="#F9FAFB"/>
<path d="M455.785 578.333L457.507 585.38L453.781 586.291L452.059 579.244L455.785 578.333ZM464.864 617.451L466.434 623.876L462.708 624.787L461.138 618.361L464.864 617.451ZM465.577 608.974C465.355 608.066 464.999 607.335 464.509 606.779C464.035 606.22 463.371 605.783 462.518 605.469C461.681 605.15 460.593 604.91 459.254 604.748C456.989 604.458 454.959 604.059 453.165 603.553C451.382 603.026 449.89 602.202 448.687 601.078C447.48 599.938 446.624 598.334 446.118 596.263C445.636 594.289 445.687 592.462 446.272 590.783C446.858 589.105 447.883 587.673 449.349 586.488C450.826 585.283 452.671 584.41 454.885 583.869C456.573 583.457 458.164 583.338 459.658 583.513C461.148 583.672 462.505 584.116 463.73 584.846C464.951 585.56 465.993 586.546 466.857 587.803C467.722 589.06 468.372 590.58 468.807 592.364L461.952 594.039C461.719 593.084 461.409 592.265 461.023 591.583C460.637 590.901 460.184 590.362 459.666 589.966C459.163 589.565 458.611 589.312 458.012 589.205C457.408 589.083 456.78 589.101 456.127 589.261C455.155 589.498 454.406 589.884 453.878 590.418C453.351 590.952 453.023 591.58 452.896 592.303C452.781 593.007 452.825 593.772 453.027 594.6C453.226 595.412 453.542 596.086 453.977 596.621C454.427 597.152 455.081 597.583 455.938 597.914C456.791 598.228 457.919 598.493 459.321 598.707C461.586 598.997 463.611 599.413 465.398 599.955C467.184 600.498 468.679 601.331 469.881 602.454C471.084 603.578 471.938 605.175 472.444 607.245C472.946 609.299 472.897 611.167 472.296 612.85C471.69 614.517 470.621 615.942 469.088 617.127C467.551 618.296 465.652 619.157 463.391 619.709C461.926 620.067 460.422 620.232 458.88 620.204C457.333 620.16 455.864 619.844 454.471 619.257C453.079 618.669 451.855 617.736 450.801 616.458C449.742 615.164 448.952 613.45 448.43 611.317L455.309 609.635C455.594 610.798 455.982 611.732 456.476 612.438C456.965 613.129 457.513 613.645 458.119 613.986C458.738 614.307 459.389 614.486 460.073 614.521C460.756 614.556 461.425 614.494 462.078 614.335C463.097 614.086 463.888 613.698 464.451 613.172C465.031 612.643 465.41 612.018 465.588 611.3C465.779 610.561 465.775 609.786 465.577 608.974ZM488.536 576.1L497.053 610.951L490.174 612.632L483.595 585.712L475.972 590.359L474.647 584.937L487.795 576.281L488.536 576.1ZM527.704 581.792L529.175 587.811C529.813 590.423 530.085 592.744 529.991 594.775C529.893 596.79 529.466 598.532 528.711 599.999C527.968 601.446 526.95 602.631 525.657 603.555C524.364 604.478 522.841 605.154 521.09 605.582C519.688 605.925 518.34 606.069 517.044 606.014C515.744 605.944 514.515 605.645 513.357 605.118C512.215 604.587 511.151 603.826 510.167 602.835C509.194 601.824 508.326 600.551 507.563 599.016C506.799 597.482 506.161 595.663 505.647 593.561L504.176 587.542C503.538 584.93 503.27 582.625 503.372 580.625C503.486 578.606 503.914 576.873 504.657 575.426C505.417 573.975 506.445 572.795 507.742 571.888C509.035 570.964 510.557 570.288 512.309 569.86C513.71 569.518 515.053 569.384 516.336 569.458C517.632 569.512 518.857 569.795 520.012 570.306C521.166 570.817 522.229 571.578 523.202 572.589C524.171 573.585 525.037 574.849 525.8 576.384C526.56 577.903 527.194 579.706 527.704 581.792ZM522.494 590.406L520.573 582.547C520.266 581.289 519.926 580.208 519.553 579.303C519.196 578.395 518.802 577.647 518.372 577.061C517.938 576.458 517.471 575.998 516.972 575.682C516.472 575.365 515.944 575.173 515.388 575.107C514.832 575.04 514.243 575.083 513.622 575.235C512.842 575.425 512.186 575.746 511.655 576.196C511.14 576.643 510.757 577.251 510.506 578.021C510.252 578.775 510.147 579.729 510.193 580.882C510.251 582.016 510.47 583.363 510.851 584.923L512.772 592.782C513.08 594.04 513.414 595.131 513.775 596.055C514.151 596.976 514.559 597.745 514.997 598.364C515.447 598.962 515.916 599.43 516.403 599.767C516.902 600.083 517.43 600.275 517.986 600.342C518.559 600.404 519.155 600.36 519.776 600.208C520.541 600.021 521.18 599.704 521.696 599.258C522.223 598.792 522.612 598.173 522.862 597.403C523.125 596.614 523.226 595.644 523.164 594.495C523.103 593.345 522.879 591.982 522.494 590.406Z" fill="#1D3A70"/>
<rect x="608.909" y="449.47" width="228.976" height="226.615" rx="50.359" transform="rotate(-13.7338 608.909 449.47)" fill="#F9FAFB"/>
<path d="M714.903 515.005L716.626 522.052L712.899 522.962L711.177 515.916L714.903 515.005ZM723.983 554.123L725.553 560.548L721.827 561.459L720.256 555.033L723.983 554.123ZM724.695 545.646C724.474 544.738 724.118 544.007 723.628 543.451C723.153 542.892 722.49 542.455 721.637 542.141C720.799 541.822 719.711 541.582 718.372 541.42C716.107 541.129 714.078 540.731 712.283 540.225C710.501 539.698 709.008 538.873 707.806 537.75C706.599 536.61 705.743 535.005 705.237 532.935C704.754 530.961 704.806 529.134 705.391 527.455C705.976 525.777 707.002 524.345 708.467 523.16C709.945 521.955 711.79 521.082 714.004 520.541C715.692 520.128 717.283 520.01 718.777 520.184C720.267 520.343 721.624 520.788 722.849 521.518C724.07 522.232 725.112 523.218 725.976 524.475C726.84 525.732 727.49 527.252 727.926 529.035L721.071 530.711C720.837 529.755 720.527 528.937 720.141 528.255C719.755 527.573 719.303 527.034 718.784 526.637C718.281 526.237 717.73 525.984 717.13 525.877C716.527 525.755 715.898 525.773 715.245 525.933C714.274 526.17 713.525 526.556 712.997 527.09C712.469 527.624 712.142 528.252 712.015 528.975C711.9 529.678 711.943 530.444 712.146 531.272C712.344 532.084 712.661 532.758 713.095 533.293C713.546 533.824 714.2 534.255 715.057 534.585C715.91 534.9 717.038 535.164 718.44 535.379C720.705 535.669 722.73 536.085 724.516 536.627C726.303 537.17 727.797 538.002 729 539.126C730.203 540.25 731.057 541.846 731.563 543.917C732.065 545.971 732.015 547.839 731.414 549.522C730.809 551.189 729.74 552.614 728.207 553.799C726.67 554.968 724.771 555.828 722.51 556.381C721.045 556.739 719.541 556.904 717.998 556.876C716.452 556.832 714.983 556.516 713.59 555.928C712.198 555.341 710.974 554.408 709.919 553.13C708.86 551.836 708.07 550.122 707.549 547.988L714.428 546.307C714.712 547.47 715.101 548.404 715.594 549.11C716.084 549.801 716.631 550.317 717.238 550.658C717.857 550.979 718.508 551.157 719.191 551.193C719.875 551.228 720.543 551.166 721.196 551.007C722.215 550.758 723.007 550.37 723.57 549.844C724.149 549.315 724.528 548.69 724.707 547.972C724.898 547.233 724.894 546.458 724.695 545.646ZM747.655 512.772L756.172 547.622L749.293 549.304L742.713 522.384L735.091 527.031L733.766 521.609L746.914 512.953L747.655 512.772ZM771.014 527.213L765.199 527.241L762.873 509.129L782.412 504.354L783.773 509.919L769.895 513.311L770.92 521.236C771.316 520.853 771.947 520.395 772.812 519.863C773.674 519.314 774.686 518.898 775.848 518.614C777.536 518.202 779.097 518.099 780.532 518.305C781.966 518.511 783.259 519.005 784.412 519.787C785.581 520.564 786.581 521.619 787.413 522.951C788.245 524.284 788.885 525.866 789.332 527.697C789.71 529.242 789.831 530.773 789.696 532.291C789.557 533.793 789.136 535.212 788.433 536.548C787.726 537.869 786.716 539.018 785.403 539.997C784.09 540.977 782.43 541.711 780.423 542.202C778.927 542.568 777.423 542.699 775.913 542.595C774.418 542.488 773.007 542.133 771.678 541.529C770.365 540.922 769.223 540.079 768.25 539C767.29 537.902 766.597 536.552 766.172 534.952L773.004 533.282C773.341 534.246 773.804 535.036 774.393 535.651C774.994 536.247 775.692 536.65 776.486 536.861C777.28 537.072 778.146 537.063 779.086 536.833C779.962 536.619 780.669 536.269 781.209 535.783C781.748 535.297 782.137 534.712 782.375 534.03C782.609 533.331 782.717 532.562 782.697 531.723C782.69 530.864 782.571 529.965 782.342 529.026C782.112 528.086 781.792 527.261 781.383 526.552C780.973 525.842 780.469 525.265 779.871 524.82C779.273 524.376 778.579 524.09 777.788 523.962C777.014 523.831 776.157 523.88 775.217 524.11C773.943 524.421 773.004 524.861 772.401 525.431C771.814 525.996 771.351 526.59 771.014 527.213Z" fill="#1D3A70"/>
<rect x="868.028" y="386.142" width="228.976" height="226.615" rx="50.359" transform="rotate(-13.7338 868.028 386.142)" fill="#F9FAFB"/>
<path d="M974.022 451.677L975.744 458.723L972.018 459.634L970.296 452.588L974.022 451.677ZM983.101 490.794L984.672 497.22L980.946 498.13L979.375 491.705L983.101 490.794ZM983.814 482.317C983.592 481.41 983.236 480.678 982.746 480.123C982.272 479.564 981.608 479.127 980.755 478.812C979.918 478.494 978.83 478.253 977.491 478.091C975.226 477.801 973.197 477.403 971.402 476.896C969.62 476.37 968.127 475.545 966.924 474.421C965.718 473.282 964.861 471.677 964.355 469.607C963.873 467.632 963.924 465.806 964.51 464.127C965.095 462.448 966.12 461.016 967.586 459.831C969.063 458.626 970.909 457.754 973.122 457.213C974.81 456.8 976.401 456.681 977.895 456.856C979.385 457.015 980.743 457.46 981.967 458.19C983.188 458.904 984.231 459.889 985.095 461.146C985.959 462.403 986.609 463.924 987.045 465.707L980.189 467.383C979.956 466.427 979.646 465.608 979.26 464.926C978.874 464.245 978.422 463.705 977.903 463.309C977.4 462.909 976.849 462.655 976.249 462.549C975.645 462.426 975.017 462.445 974.364 462.605C973.393 462.842 972.643 463.228 972.116 463.762C971.588 464.296 971.261 464.924 971.133 465.647C971.018 466.35 971.062 467.116 971.264 467.944C971.463 468.756 971.779 469.429 972.214 469.965C972.664 470.496 973.318 470.927 974.175 471.257C975.028 471.572 976.156 471.836 977.559 472.05C979.823 472.341 981.849 472.757 983.635 473.299C985.421 473.841 986.916 474.674 988.119 475.798C989.321 476.921 990.176 478.518 990.682 480.588C991.184 482.642 991.134 484.511 990.533 486.194C989.928 487.86 988.859 489.286 987.326 490.471C985.789 491.639 983.89 492.5 981.628 493.053C980.163 493.411 978.66 493.576 977.117 493.548C975.571 493.504 974.101 493.188 972.709 492.6C971.316 492.012 970.093 491.079 969.038 489.801C967.979 488.508 967.189 486.794 966.668 484.66L973.547 482.979C973.831 484.141 974.22 485.076 974.713 485.782C975.202 486.472 975.75 486.988 976.357 487.329C976.975 487.651 977.626 487.829 978.31 487.864C978.994 487.9 979.662 487.838 980.315 487.678C981.334 487.429 982.125 487.042 982.689 486.516C983.268 485.986 983.647 485.362 983.826 484.643C984.016 483.905 984.013 483.129 983.814 482.317ZM1021 477.203L1022.31 482.578L998.522 488.392L997.401 483.806L1005.7 468.994C1006.53 467.46 1007.15 466.135 1007.57 465.02C1007.98 463.889 1008.24 462.906 1008.34 462.072C1008.45 461.218 1008.42 460.44 1008.25 459.739C1007.99 458.688 1007.6 457.832 1007.07 457.169C1006.53 456.49 1005.87 456.027 1005.08 455.781C1004.31 455.53 1003.43 455.525 1002.45 455.767C1001.39 456.024 1000.55 456.5 999.91 457.197C999.286 457.889 998.886 458.738 998.709 459.743C998.549 460.744 998.609 461.818 998.889 462.964L991.986 464.651C991.48 462.581 991.511 460.566 992.078 458.604C992.641 456.627 993.697 454.909 995.248 453.45C996.794 451.976 998.802 450.937 1001.27 450.333C1003.71 449.738 1005.86 449.634 1007.72 450.022C1009.6 450.389 1011.15 451.209 1012.38 452.479C1013.61 453.73 1014.48 455.375 1014.97 457.413C1015.25 458.56 1015.34 459.727 1015.25 460.915C1015.15 462.088 1014.88 463.299 1014.46 464.549C1014.06 465.78 1013.51 467.061 1012.82 468.393C1012.14 469.726 1011.35 471.123 1010.48 472.585L1006.09 480.846L1021 477.203ZM1045.94 455.135L1047.41 461.154C1048.05 463.766 1048.32 466.087 1048.23 468.119C1048.13 470.134 1047.7 471.875 1046.95 473.342C1046.21 474.789 1045.19 475.975 1043.89 476.898C1042.6 477.822 1041.08 478.498 1039.33 478.926C1037.93 479.268 1036.58 479.412 1035.28 479.358C1033.98 479.287 1032.75 478.989 1031.59 478.462C1030.45 477.931 1029.39 477.17 1028.4 476.179C1027.43 475.167 1026.56 473.895 1025.8 472.36C1025.04 470.825 1024.4 469.007 1023.88 466.905L1022.41 460.885C1021.78 458.274 1021.51 455.968 1021.61 453.969C1021.72 451.95 1022.15 450.217 1022.89 448.769C1023.65 447.318 1024.68 446.139 1025.98 445.231C1027.27 444.308 1028.79 443.632 1030.55 443.204C1031.95 442.861 1033.29 442.727 1034.57 442.801C1035.87 442.856 1037.09 443.139 1038.25 443.65C1039.4 444.161 1040.47 444.922 1041.44 445.933C1042.41 446.928 1043.27 448.193 1044.04 449.728C1044.8 451.247 1045.43 453.049 1045.94 455.135ZM1040.73 463.749L1038.81 455.891C1038.5 454.633 1038.16 453.551 1037.79 452.647C1037.43 451.738 1037.04 450.991 1036.61 450.404C1036.17 449.802 1035.71 449.342 1035.21 449.025C1034.71 448.708 1034.18 448.517 1033.63 448.45C1033.07 448.384 1032.48 448.426 1031.86 448.578C1031.08 448.769 1030.42 449.089 1029.89 449.54C1029.38 449.986 1028.99 450.595 1028.74 451.365C1028.49 452.119 1028.38 453.072 1028.43 454.226C1028.49 455.359 1028.71 456.706 1029.09 458.267L1031.01 466.125C1031.32 467.383 1031.65 468.474 1032.01 469.399C1032.39 470.319 1032.8 471.089 1033.23 471.707C1033.68 472.306 1034.15 472.774 1034.64 473.11C1035.14 473.427 1035.67 473.619 1036.22 473.685C1036.8 473.748 1037.39 473.703 1038.01 473.551C1038.78 473.365 1039.42 473.048 1039.93 472.601C1040.46 472.135 1040.85 471.517 1041.1 470.747C1041.36 469.957 1041.46 468.987 1041.4 467.838C1041.34 466.689 1041.12 465.326 1040.73 463.749Z" fill="#1D3A70"/>
<rect x="153.439" y="832.953" width="228.976" height="226.615" rx="50.359" transform="rotate(-13.7338 153.439 832.953)" fill="#F9FAFB"/>
<path d="M259.434 898.487L261.156 905.534L257.43 906.445L255.708 899.398L259.434 898.487ZM268.513 937.605L270.083 944.03L266.357 944.941L264.787 938.515L268.513 937.605ZM269.226 929.128C269.004 928.22 268.648 927.489 268.158 926.933C267.684 926.374 267.02 925.937 266.167 925.623C265.33 925.304 264.242 925.064 262.902 924.902C260.638 924.612 258.608 924.213 256.814 923.707C255.031 923.18 253.539 922.356 252.336 921.232C251.129 920.092 250.273 918.488 249.767 916.418C249.285 914.443 249.336 912.616 249.921 910.938C250.507 909.259 251.532 907.827 252.997 906.642C254.475 905.437 256.32 904.564 258.534 904.023C260.222 903.611 261.813 903.492 263.307 903.667C264.797 903.826 266.154 904.27 267.379 905C268.6 905.714 269.642 906.7 270.506 907.957C271.371 909.214 272.02 910.734 272.456 912.518L265.601 914.193C265.367 913.238 265.058 912.419 264.672 911.737C264.286 911.055 263.833 910.516 263.314 910.12C262.812 909.719 262.26 909.466 261.661 909.359C261.057 909.237 260.429 909.256 259.776 909.415C258.804 909.652 258.055 910.038 257.527 910.572C257 911.106 256.672 911.735 256.545 912.457C256.43 913.161 256.474 913.926 256.676 914.754C256.875 915.566 257.191 916.24 257.626 916.775C258.076 917.306 258.73 917.737 259.587 918.068C260.44 918.382 261.568 918.647 262.97 918.861C265.235 919.151 267.26 919.567 269.047 920.11C270.833 920.652 272.328 921.485 273.53 922.608C274.733 923.732 275.587 925.329 276.093 927.399C276.595 929.453 276.546 931.321 275.944 933.004C275.339 934.671 274.27 936.096 272.737 937.281C271.2 938.45 269.301 939.311 267.04 939.863C265.575 940.221 264.071 940.386 262.529 940.358C260.982 940.314 259.513 939.998 258.12 939.411C256.728 938.823 255.504 937.89 254.449 936.612C253.391 935.318 252.601 933.604 252.079 931.471L258.958 929.789C259.243 930.952 259.631 931.886 260.124 932.593C260.614 933.283 261.162 933.799 261.768 934.14C262.387 934.461 263.038 934.64 263.722 934.675C264.405 934.71 265.074 934.648 265.726 934.489C266.746 934.24 267.537 933.852 268.1 933.326C268.68 932.797 269.059 932.173 269.237 931.454C269.428 930.715 269.424 929.94 269.226 929.128ZM286.537 917.784L280.722 917.813L278.396 899.7L297.935 894.925L299.295 900.491L285.417 903.882L286.443 911.808C286.839 911.424 287.469 910.966 288.335 910.434C289.197 909.886 290.209 909.47 291.371 909.186C293.059 908.773 294.62 908.67 296.054 908.877C297.489 909.083 298.782 909.577 299.935 910.358C301.104 911.136 302.104 912.191 302.936 913.523C303.768 914.855 304.408 916.437 304.855 918.268C305.233 919.813 305.354 921.344 305.219 922.863C305.079 924.365 304.658 925.784 303.956 927.12C303.249 928.44 302.239 929.59 300.926 930.569C299.612 931.548 297.953 932.283 295.946 932.773C294.449 933.139 292.946 933.27 291.435 933.167C289.941 933.06 288.529 932.704 287.201 932.101C285.888 931.494 284.745 930.651 283.773 929.572C282.813 928.474 282.12 927.124 281.695 925.524L288.526 923.854C288.863 924.818 289.326 925.608 289.915 926.223C290.517 926.819 291.214 927.222 292.008 927.433C292.802 927.644 293.669 927.634 294.609 927.405C295.485 927.191 296.192 926.841 296.731 926.354C297.271 925.868 297.66 925.284 297.898 924.601C298.132 923.903 298.239 923.134 298.22 922.295C298.213 921.436 298.094 920.537 297.864 919.597C297.635 918.658 297.315 917.833 296.905 917.123C296.496 916.413 295.992 915.836 295.394 915.392C294.796 914.947 294.101 914.661 293.311 914.534C292.536 914.402 291.679 914.452 290.74 914.681C289.466 914.993 288.527 915.433 287.924 916.002C287.336 916.568 286.874 917.162 286.537 917.784ZM331.353 901.946L332.824 907.965C333.462 910.577 333.734 912.898 333.64 914.929C333.542 916.944 333.115 918.686 332.36 920.153C331.617 921.6 330.599 922.785 329.306 923.709C328.013 924.632 326.49 925.308 324.739 925.736C323.337 926.079 321.989 926.223 320.693 926.168C319.393 926.098 318.164 925.799 317.006 925.272C315.864 924.741 314.8 923.98 313.815 922.989C312.843 921.978 311.975 920.705 311.211 919.17C310.448 917.636 309.81 915.817 309.296 913.715L307.825 907.696C307.187 905.084 306.919 902.779 307.021 900.779C307.135 898.76 307.563 897.027 308.306 895.58C309.065 894.129 310.094 892.949 311.39 892.042C312.684 891.118 314.206 890.442 315.958 890.014C317.359 889.672 318.701 889.538 319.985 889.612C321.281 889.667 322.506 889.949 323.661 890.46C324.815 890.971 325.878 891.732 326.851 892.743C327.82 893.739 328.686 895.004 329.449 896.538C330.209 898.057 330.843 899.86 331.353 901.946ZM326.143 910.56L324.222 902.701C323.915 901.443 323.574 900.362 323.202 899.457C322.845 898.549 322.451 897.801 322.021 897.215C321.586 896.612 321.12 896.152 320.62 895.836C320.121 895.519 319.593 895.327 319.037 895.261C318.481 895.194 317.892 895.237 317.271 895.389C316.491 895.579 315.835 895.9 315.304 896.35C314.789 896.797 314.406 897.405 314.155 898.175C313.901 898.929 313.796 899.883 313.842 901.036C313.899 902.17 314.119 903.517 314.5 905.077L316.421 912.936C316.729 914.194 317.063 915.285 317.424 916.209C317.8 917.13 318.208 917.899 318.646 918.518C319.096 919.117 319.565 919.584 320.052 919.921C320.551 920.237 321.079 920.429 321.635 920.496C322.208 920.558 322.804 920.514 323.425 920.362C324.19 920.175 324.829 919.859 325.345 919.412C325.872 918.946 326.261 918.327 326.511 917.557C326.774 916.768 326.875 915.798 326.813 914.649C326.751 913.499 326.528 912.136 326.143 910.56Z" fill="#1D3A70"/>
<rect x="412.558" y="769.625" width="228.976" height="226.615" rx="50.359" transform="rotate(-13.7338 412.558 769.625)" fill="#FF6C10"/>
<path d="M504.049 838.704L505.771 845.751L502.045 846.661L500.322 839.615L504.049 838.704ZM513.128 877.821L514.698 884.247L510.972 885.158L509.402 878.732L513.128 877.821ZM513.841 869.345C513.619 868.437 513.263 867.705 512.773 867.15C512.299 866.591 511.635 866.154 510.782 865.84C509.945 865.521 508.856 865.281 507.517 865.119C505.253 864.828 503.223 864.43 501.429 863.923C499.646 863.397 498.154 862.572 496.951 861.449C495.744 860.309 494.888 858.704 494.382 856.634C493.899 854.66 493.951 852.833 494.536 851.154C495.122 849.475 496.147 848.044 497.612 846.859C499.09 845.654 500.935 844.781 503.149 844.24C504.837 843.827 506.428 843.708 507.922 843.883C509.412 844.042 510.769 844.487 511.994 845.217C513.215 845.931 514.257 846.917 515.121 848.174C515.985 849.431 516.635 850.951 517.071 852.734L510.216 854.41C509.982 853.454 509.673 852.636 509.287 851.954C508.901 851.272 508.448 850.733 507.929 850.336C507.427 849.936 506.875 849.683 506.276 849.576C505.672 849.454 505.044 849.472 504.391 849.632C503.419 849.869 502.67 850.255 502.142 850.789C501.614 851.323 501.287 851.951 501.16 852.674C501.045 853.377 501.089 854.143 501.291 854.971C501.49 855.783 501.806 856.457 502.241 856.992C502.691 857.523 503.345 857.954 504.202 858.284C505.055 858.599 506.183 858.863 507.585 859.078C509.85 859.368 511.875 859.784 513.662 860.326C515.448 860.868 516.943 861.701 518.145 862.825C519.348 863.948 520.202 865.545 520.708 867.615C521.21 869.67 521.161 871.538 520.559 873.221C519.954 874.887 518.885 876.313 517.352 877.498C515.815 878.667 513.916 879.527 511.655 880.08C510.19 880.438 508.686 880.603 507.144 880.575C505.597 880.531 504.128 880.215 502.735 879.627C501.343 879.039 500.119 878.107 499.064 876.829C498.006 875.535 497.216 873.821 496.694 871.687L503.573 870.006C503.857 871.168 504.246 872.103 504.739 872.809C505.229 873.5 505.777 874.015 506.383 874.357C507.002 874.678 507.653 874.856 508.337 874.892C509.02 874.927 509.689 874.865 510.341 874.705C511.361 874.456 512.152 874.069 512.715 873.543C513.295 873.013 513.674 872.389 513.852 871.671C514.043 870.932 514.039 870.157 513.841 869.345ZM536.8 836.471L545.317 871.321L538.438 873.003L531.859 846.083L524.236 850.73L522.911 845.308L536.059 836.652L536.8 836.471ZM575.968 842.162L577.439 848.182C578.077 850.793 578.349 853.115 578.255 855.146C578.157 857.161 577.73 858.902 576.975 860.369C576.232 861.817 575.214 863.002 573.921 863.926C572.628 864.849 571.105 865.525 569.354 865.953C567.952 866.296 566.604 866.44 565.308 866.385C564.008 866.315 562.779 866.016 561.621 865.489C560.479 864.958 559.415 864.197 558.43 863.206C557.458 862.195 556.59 860.922 555.826 859.387C555.063 857.852 554.425 856.034 553.911 853.932L552.44 847.913C551.802 845.301 551.534 842.996 551.636 840.996C551.75 838.977 552.178 837.244 552.921 835.797C553.68 834.345 554.708 833.166 556.005 832.258C557.299 831.335 558.821 830.659 560.573 830.231C561.974 829.888 563.316 829.754 564.6 829.829C565.896 829.883 567.121 830.166 568.276 830.677C569.43 831.188 570.493 831.949 571.466 832.96C572.435 833.955 573.301 835.22 574.064 836.755C574.824 838.274 575.458 840.076 575.968 842.162ZM570.758 850.776L568.837 842.918C568.53 841.66 568.189 840.579 567.817 839.674C567.46 838.766 567.066 838.018 566.636 837.431C566.201 836.829 565.735 836.369 565.235 836.052C564.736 835.736 564.208 835.544 563.652 835.477C563.096 835.411 562.507 835.453 561.886 835.605C561.106 835.796 560.45 836.117 559.919 836.567C559.404 837.014 559.021 837.622 558.77 838.392C558.516 839.146 558.411 840.1 558.457 841.253C558.514 842.386 558.734 843.733 559.115 845.294L561.036 853.152C561.343 854.41 561.678 855.502 562.039 856.426C562.415 857.346 562.823 858.116 563.261 858.734C563.711 859.333 564.18 859.801 564.667 860.137C565.166 860.454 565.694 860.646 566.25 860.712C566.822 860.775 567.419 860.73 568.04 860.579C568.805 860.392 569.444 860.075 569.96 859.629C570.487 859.162 570.876 858.544 571.126 857.774C571.389 856.984 571.49 856.015 571.428 854.865C571.366 853.716 571.143 852.353 570.758 850.776ZM604.975 835.073L606.447 841.092C607.085 843.704 607.357 846.025 607.263 848.056C607.165 850.072 606.738 851.813 605.983 853.28C605.24 854.727 604.221 855.913 602.928 856.836C601.635 857.76 600.113 858.436 598.361 858.864C596.96 859.206 595.611 859.35 594.315 859.296C593.016 859.225 591.787 858.926 590.629 858.399C589.486 857.869 588.423 857.108 587.438 856.116C586.465 855.105 585.597 853.832 584.834 852.298C584.071 850.763 583.432 848.945 582.919 846.843L581.447 840.823C580.809 838.212 580.541 835.906 580.643 833.907C580.757 831.888 581.186 830.154 581.929 828.707C582.688 827.256 583.716 826.077 585.013 825.169C586.306 824.245 587.828 823.57 589.58 823.141C590.981 822.799 592.324 822.665 593.608 822.739C594.904 822.794 596.129 823.077 597.283 823.588C598.437 824.099 599.501 824.86 600.474 825.871C601.442 826.866 602.309 828.131 603.072 829.666C603.831 831.184 604.466 832.987 604.975 835.073ZM599.765 843.687L597.845 835.828C597.537 834.57 597.197 833.489 596.824 832.585C596.467 831.676 596.073 830.929 595.643 830.342C595.209 829.739 594.742 829.28 594.243 828.963C593.744 828.646 593.216 828.455 592.66 828.388C592.103 828.321 591.515 828.364 590.894 828.516C590.113 828.707 589.458 829.027 588.926 829.478C588.411 829.924 588.028 830.532 587.778 831.302C587.523 832.057 587.419 833.01 587.464 834.163C587.522 835.297 587.742 836.644 588.123 838.204L590.044 846.063C590.351 847.321 590.685 848.412 591.046 849.337C591.423 850.257 591.83 851.026 592.268 851.645C592.719 852.244 593.187 852.711 593.674 853.048C594.174 853.365 594.702 853.556 595.258 853.623C595.83 853.686 596.427 853.641 597.048 853.489C597.812 853.302 598.452 852.986 598.967 852.539C599.494 852.073 599.883 851.455 600.134 850.685C600.397 849.895 600.497 848.925 600.436 847.776C600.374 846.627 600.151 845.264 599.765 843.687Z" fill="white"/>
<rect x="671.677" y="706.296" width="228.976" height="226.615" rx="50.359" transform="rotate(-13.7338 671.677 706.296)" fill="#F9FAFB"/>
<path d="M763.167 775.376L764.89 782.422L761.163 783.333L759.441 776.286L763.167 775.376ZM772.247 814.493L773.817 820.918L770.091 821.829L768.52 815.404L772.247 814.493ZM772.959 806.016C772.738 805.108 772.382 804.377 771.891 803.822C771.417 803.263 770.754 802.826 769.901 802.511C769.063 802.193 767.975 801.952 766.636 801.79C764.371 801.5 762.342 801.102 760.547 800.595C758.765 800.069 757.272 799.244 756.07 798.12C754.863 796.981 754.007 795.376 753.501 793.306C753.018 791.331 753.07 789.505 753.655 787.826C754.24 786.147 755.266 784.715 756.731 783.53C758.209 782.325 760.054 781.452 762.267 780.911C763.955 780.499 765.546 780.38 767.04 780.555C768.531 780.714 769.888 781.158 771.113 781.889C772.333 782.603 773.376 783.588 774.24 784.845C775.104 786.102 775.754 787.622 776.19 789.406L769.335 791.081C769.101 790.126 768.791 789.307 768.405 788.625C768.019 787.943 767.567 787.404 767.048 787.008C766.545 786.608 765.994 786.354 765.394 786.248C764.79 786.125 764.162 786.144 763.509 786.303C762.538 786.541 761.788 786.926 761.261 787.46C760.733 787.994 760.406 788.623 760.279 789.346C760.164 790.049 760.207 790.815 760.41 791.643C760.608 792.455 760.925 793.128 761.359 793.663C761.81 794.195 762.463 794.625 763.32 794.956C764.174 795.271 765.301 795.535 766.704 795.749C768.969 796.039 770.994 796.456 772.78 796.998C774.567 797.54 776.061 798.373 777.264 799.497C778.467 800.62 779.321 802.217 779.827 804.287C780.329 806.341 780.279 808.21 779.678 809.892C779.073 811.559 778.004 812.985 776.471 814.169C774.934 815.338 773.035 816.199 770.774 816.752C769.309 817.11 767.805 817.275 766.262 817.247C764.716 817.203 763.246 816.887 761.854 816.299C760.462 815.711 759.238 814.778 758.183 813.5C757.124 812.207 756.334 810.493 755.813 808.359L762.692 806.678C762.976 807.84 763.365 808.775 763.858 809.481C764.347 810.171 764.895 810.687 765.502 811.028C766.12 811.35 766.772 811.528 767.455 811.563C768.139 811.599 768.807 811.537 769.46 811.377C770.479 811.128 771.27 810.741 771.834 810.215C772.413 809.685 772.792 809.061 772.971 808.342C773.162 807.604 773.158 806.828 772.959 806.016ZM810.145 800.902L811.458 806.277L787.668 812.091L786.547 807.505L794.849 792.693C795.672 791.158 796.294 789.834 796.713 788.719C797.128 787.588 797.386 786.605 797.486 785.771C797.598 784.916 797.568 784.139 797.397 783.438C797.14 782.387 796.745 781.53 796.212 780.868C795.675 780.189 795.013 779.726 794.227 779.479C793.457 779.229 792.578 779.224 791.591 779.466C790.54 779.722 789.695 780.199 789.055 780.895C788.431 781.588 788.031 782.437 787.855 783.442C787.694 784.443 787.754 785.517 788.034 786.663L781.131 788.35C780.625 786.28 780.656 784.264 781.223 782.303C781.786 780.326 782.843 778.608 784.393 777.149C785.939 775.674 787.947 774.635 790.415 774.032C792.851 773.437 795.003 773.333 796.87 773.72C798.748 774.088 800.299 774.907 801.52 776.178C802.754 777.429 803.62 779.074 804.118 781.112C804.399 782.259 804.49 783.426 804.392 784.614C804.291 785.787 804.03 786.998 803.61 788.248C803.202 789.479 802.654 790.76 801.967 792.092C801.28 793.424 800.5 794.822 799.625 796.284L795.24 804.545L810.145 800.902ZM835.087 778.834L836.558 784.853C837.196 787.465 837.468 789.786 837.374 791.817C837.276 793.833 836.849 795.574 836.094 797.041C835.351 798.488 834.332 799.674 833.039 800.597C831.746 801.521 830.224 802.197 828.472 802.625C827.071 802.967 825.722 803.111 824.427 803.057C823.127 802.986 821.898 802.687 820.74 802.16C819.597 801.63 818.534 800.869 817.549 799.877C816.576 798.866 815.708 797.593 814.945 796.059C814.182 794.524 813.543 792.706 813.03 790.604L811.559 784.584C810.92 781.973 810.652 779.667 810.754 777.668C810.868 775.649 811.297 773.915 812.04 772.468C812.799 771.017 813.827 769.838 815.124 768.93C816.417 768.006 817.94 767.331 819.691 766.902C821.093 766.56 822.435 766.426 823.719 766.5C825.015 766.555 826.24 766.838 827.394 767.349C828.548 767.86 829.612 768.621 830.585 769.632C831.554 770.627 832.42 771.892 833.183 773.427C833.942 774.945 834.577 776.748 835.087 778.834ZM829.876 787.448L827.956 779.59C827.648 778.332 827.308 777.25 826.935 776.346C826.578 775.437 826.185 774.69 825.754 774.103C825.32 773.5 824.853 773.041 824.354 772.724C823.855 772.407 823.327 772.216 822.771 772.149C822.214 772.083 821.626 772.125 821.005 772.277C820.224 772.468 819.569 772.788 819.038 773.239C818.522 773.685 818.139 774.293 817.889 775.063C817.634 775.818 817.53 776.771 817.575 777.924C817.633 779.058 817.853 780.405 818.234 781.966L820.155 789.824C820.462 791.082 820.796 792.173 821.157 793.098C821.534 794.018 821.941 794.788 822.38 795.406C822.83 796.005 823.298 796.473 823.786 796.809C824.285 797.126 824.813 797.317 825.369 797.384C825.941 797.447 826.538 797.402 827.159 797.25C827.923 797.064 828.563 796.747 829.078 796.3C829.606 795.834 829.994 795.216 830.245 794.446C830.508 793.656 830.608 792.686 830.547 791.537C830.485 790.388 830.262 789.025 829.876 787.448ZM864.094 771.745L865.565 777.764C866.204 780.375 866.476 782.697 866.381 784.728C866.283 786.743 865.857 788.485 865.101 789.952C864.358 791.399 863.34 792.584 862.047 793.508C860.754 794.431 859.232 795.107 857.48 795.535C856.079 795.878 854.73 796.022 853.434 795.967C852.134 795.897 850.905 795.598 849.747 795.071C848.605 794.54 847.541 793.779 846.557 792.788C845.584 791.777 844.716 790.504 843.953 788.969C843.189 787.435 842.551 785.616 842.037 783.514L840.566 777.495C839.928 774.883 839.66 772.578 839.762 770.578C839.876 768.559 840.304 766.826 841.048 765.379C841.807 763.928 842.835 762.748 844.132 761.841C845.425 760.917 846.947 760.241 848.699 759.813C850.1 759.471 851.443 759.337 852.726 759.411C854.022 759.465 855.247 759.748 856.402 760.259C857.556 760.77 858.62 761.531 859.592 762.542C860.561 763.538 861.427 764.802 862.19 766.337C862.95 767.856 863.584 769.659 864.094 771.745ZM858.884 780.359L856.963 772.5C856.656 771.242 856.316 770.161 855.943 769.256C855.586 768.348 855.192 767.6 854.762 767.014C854.328 766.411 853.861 765.951 853.362 765.635C852.862 765.318 852.335 765.126 851.778 765.06C851.222 764.993 850.633 765.036 850.012 765.188C849.232 765.378 848.576 765.699 848.045 766.149C847.53 766.596 847.147 767.204 846.896 767.974C846.642 768.728 846.537 769.682 846.583 770.835C846.641 771.969 846.86 773.316 847.242 774.876L849.162 782.735C849.47 783.993 849.804 785.084 850.165 786.008C850.542 786.929 850.949 787.698 851.387 788.317C851.837 788.915 852.306 789.383 852.793 789.72C853.292 790.036 853.82 790.228 854.376 790.295C854.949 790.357 855.545 790.313 856.166 790.161C856.931 789.974 857.571 789.657 858.086 789.211C858.613 788.744 859.002 788.126 859.253 787.356C859.515 786.566 859.616 785.597 859.554 784.448C859.493 783.298 859.269 781.935 858.884 780.359Z" fill="#1D3A70"/>
<rect x="930.796" y="642.968" width="228.976" height="226.615" rx="50.359" transform="rotate(-13.7338 930.796 642.968)" fill="#F9FAFB"/>
<path d="M1022.29 712.048L1024.01 719.094L1020.28 720.005L1018.56 712.958L1022.29 712.048ZM1031.37 751.165L1032.94 757.59L1029.21 758.501L1027.64 752.076L1031.37 751.165ZM1032.08 742.688C1031.86 741.78 1031.5 741.049 1031.01 740.494C1030.54 739.935 1029.87 739.498 1029.02 739.183C1028.18 738.865 1027.09 738.624 1025.76 738.462C1023.49 738.172 1021.46 737.773 1019.67 737.267C1017.88 736.741 1016.39 735.916 1015.19 734.792C1013.98 733.653 1013.13 732.048 1012.62 729.978C1012.14 728.003 1012.19 726.176 1012.77 724.498C1013.36 722.819 1014.38 721.387 1015.85 720.202C1017.33 718.997 1019.17 718.124 1021.39 717.583C1023.07 717.171 1024.67 717.052 1026.16 717.227C1027.65 717.386 1029.01 717.83 1030.23 718.56C1031.45 719.275 1032.49 720.26 1033.36 721.517C1034.22 722.774 1034.87 724.294 1035.31 726.078L1028.45 727.753C1028.22 726.798 1027.91 725.979 1027.52 725.297C1027.14 724.615 1026.69 724.076 1026.17 723.68C1025.66 723.28 1025.11 723.026 1024.51 722.92C1023.91 722.797 1023.28 722.816 1022.63 722.975C1021.66 723.213 1020.91 723.598 1020.38 724.132C1019.85 724.666 1019.52 725.295 1019.4 726.018C1019.28 726.721 1019.33 727.486 1019.53 728.314C1019.73 729.127 1020.04 729.8 1020.48 730.335C1020.93 730.866 1021.58 731.297 1022.44 731.628C1023.29 731.942 1024.42 732.207 1025.82 732.421C1028.09 732.711 1030.11 733.128 1031.9 733.67C1033.69 734.212 1035.18 735.045 1036.38 736.168C1037.59 737.292 1038.44 738.889 1038.95 740.959C1039.45 743.013 1039.4 744.882 1038.8 746.564C1038.19 748.231 1037.12 749.657 1035.59 750.841C1034.05 752.01 1032.15 752.871 1029.89 753.423C1028.43 753.781 1026.92 753.946 1025.38 753.918C1023.83 753.875 1022.37 753.559 1020.97 752.971C1019.58 752.383 1018.36 751.45 1017.3 750.172C1016.24 748.878 1015.45 747.165 1014.93 745.031L1021.81 743.35C1022.1 744.512 1022.48 745.446 1022.98 746.153C1023.47 746.843 1024.01 747.359 1024.62 747.7C1025.24 748.021 1025.89 748.2 1026.57 748.235C1027.26 748.271 1027.93 748.209 1028.58 748.049C1029.6 747.8 1030.39 747.412 1030.95 746.887C1031.53 746.357 1031.91 745.733 1032.09 745.014C1032.28 744.276 1032.28 743.5 1032.08 742.688ZM1049.39 731.344L1043.57 731.373L1041.25 713.261L1060.79 708.485L1062.15 714.051L1048.27 717.443L1049.3 725.368C1049.69 724.984 1050.32 724.527 1051.19 723.994C1052.05 723.446 1053.06 723.03 1054.22 722.746C1055.91 722.334 1057.47 722.23 1058.91 722.437C1060.34 722.643 1061.63 723.137 1062.79 723.918C1063.96 724.696 1064.96 725.751 1065.79 727.083C1066.62 728.416 1067.26 729.997 1067.71 731.829C1068.09 733.373 1068.21 734.905 1068.07 736.423C1067.93 737.925 1067.51 739.344 1066.81 740.68C1066.1 742.001 1065.09 743.15 1063.78 744.129C1062.46 745.108 1060.81 745.843 1058.8 746.333C1057.3 746.699 1055.8 746.831 1054.29 746.727C1052.79 746.62 1051.38 746.265 1050.05 745.661C1048.74 745.054 1047.6 744.211 1046.63 743.132C1045.67 742.034 1044.97 740.684 1044.55 739.084L1051.38 737.414C1051.72 738.378 1052.18 739.168 1052.77 739.783C1053.37 740.379 1054.07 740.782 1054.86 740.993C1055.65 741.204 1056.52 741.195 1057.46 740.965C1058.34 740.751 1059.04 740.401 1059.58 739.915C1060.12 739.428 1060.51 738.844 1060.75 738.161C1060.98 737.463 1061.09 736.694 1061.07 735.855C1061.07 734.996 1060.95 734.097 1060.72 733.157C1060.49 732.218 1060.17 731.393 1059.76 730.683C1059.35 729.973 1058.84 729.396 1058.25 728.952C1057.65 728.507 1056.95 728.221 1056.16 728.094C1055.39 727.963 1054.53 728.012 1053.59 728.241C1052.32 728.553 1051.38 728.993 1050.78 729.562C1050.19 730.128 1049.73 730.722 1049.39 731.344ZM1094.21 715.506L1095.68 721.525C1096.31 724.137 1096.59 726.458 1096.49 728.489C1096.39 730.505 1095.97 732.246 1095.21 733.713C1094.47 735.16 1093.45 736.346 1092.16 737.269C1090.87 738.193 1089.34 738.869 1087.59 739.297C1086.19 739.639 1084.84 739.783 1083.55 739.729C1082.25 739.658 1081.02 739.359 1079.86 738.832C1078.72 738.302 1077.65 737.54 1076.67 736.549C1075.7 735.538 1074.83 734.265 1074.06 732.731C1073.3 731.196 1072.66 729.377 1072.15 727.275L1070.68 721.256C1070.04 718.644 1069.77 716.339 1069.87 714.34C1069.99 712.321 1070.42 710.587 1071.16 709.14C1071.92 707.689 1072.95 706.509 1074.24 705.602C1075.54 704.678 1077.06 704.002 1078.81 703.574C1080.21 703.232 1081.55 703.098 1082.84 703.172C1084.13 703.227 1085.36 703.51 1086.51 704.021C1087.67 704.532 1088.73 705.293 1089.7 706.304C1090.67 707.299 1091.54 708.564 1092.3 710.098C1093.06 711.617 1093.7 713.42 1094.21 715.506ZM1089 724.12L1087.07 716.261C1086.77 715.003 1086.43 713.922 1086.05 713.018C1085.7 712.109 1085.3 711.362 1084.87 710.775C1084.44 710.172 1083.97 709.713 1083.47 709.396C1082.97 709.079 1082.45 708.887 1081.89 708.821C1081.33 708.754 1080.74 708.797 1080.12 708.949C1079.34 709.139 1078.69 709.46 1078.16 709.911C1077.64 710.357 1077.26 710.965 1077.01 711.735C1076.75 712.489 1076.65 713.443 1076.69 714.596C1076.75 715.73 1076.97 717.077 1077.35 718.637L1079.27 726.496C1079.58 727.754 1079.92 728.845 1080.28 729.769C1080.65 730.69 1081.06 731.459 1081.5 732.078C1081.95 732.677 1082.42 733.144 1082.9 733.481C1083.4 733.798 1083.93 733.989 1084.49 734.056C1085.06 734.119 1085.66 734.074 1086.28 733.922C1087.04 733.735 1087.68 733.419 1088.2 732.972C1088.72 732.506 1089.11 731.888 1089.36 731.118C1089.63 730.328 1089.73 729.358 1089.67 728.209C1089.6 727.059 1089.38 725.696 1089 724.12ZM1123.21 708.416L1124.68 714.436C1125.32 717.047 1125.59 719.369 1125.5 721.4C1125.4 723.415 1124.98 725.156 1124.22 726.624C1123.48 728.071 1122.46 729.256 1121.17 730.18C1119.87 731.103 1118.35 731.779 1116.6 732.207C1115.2 732.55 1113.85 732.694 1112.55 732.639C1111.25 732.569 1110.02 732.27 1108.87 731.743C1107.72 731.212 1106.66 730.451 1105.68 729.46C1104.7 728.449 1103.83 727.176 1103.07 725.641C1102.31 724.106 1101.67 722.288 1101.16 720.186L1099.69 714.167C1099.05 711.555 1098.78 709.25 1098.88 707.25C1098.99 705.231 1099.42 703.498 1100.17 702.051C1100.93 700.599 1101.95 699.42 1103.25 698.512C1104.54 697.589 1106.07 696.913 1107.82 696.485C1109.22 696.142 1110.56 696.008 1111.85 696.083C1113.14 696.137 1114.37 696.42 1115.52 696.931C1116.67 697.442 1117.74 698.203 1118.71 699.214C1119.68 700.209 1120.55 701.474 1121.31 703.009C1122.07 704.528 1122.7 706.33 1123.21 708.416ZM1118 717.031L1116.08 709.172C1115.77 707.914 1115.43 706.833 1115.06 705.928C1114.7 705.02 1114.31 704.272 1113.88 703.686C1113.45 703.083 1112.98 702.623 1112.48 702.306C1111.98 701.99 1111.45 701.798 1110.9 701.732C1110.34 701.665 1109.75 701.708 1109.13 701.859C1108.35 702.05 1107.7 702.371 1107.16 702.821C1106.65 703.268 1106.27 703.876 1106.02 704.646C1105.76 705.4 1105.66 706.354 1105.7 707.507C1105.76 708.64 1105.98 709.987 1106.36 711.548L1108.28 719.407C1108.59 720.665 1108.92 721.756 1109.28 722.68C1109.66 723.6 1110.07 724.37 1110.51 724.989C1110.96 725.587 1111.42 726.055 1111.91 726.392C1112.41 726.708 1112.94 726.9 1113.5 726.966C1114.07 727.029 1114.66 726.985 1115.29 726.833C1116.05 726.646 1116.69 726.329 1117.2 725.883C1117.73 725.416 1118.12 724.798 1118.37 724.028C1118.63 723.238 1118.73 722.269 1118.67 721.119C1118.61 719.97 1118.39 718.607 1118 717.031Z" fill="#1D3A70"/>
</svg>
