<svg width="1553" height="943" viewBox="0 0 1553 943" fill="none" xmlns="http://www.w3.org/2000/svg">
<rect x="26" width="1500.08" height="828.403" rx="89.5571" fill="url(#paint0_linear_234_325)"/>
<g filter="url(#filter0_b_234_325)">
<rect x="26" width="1500.08" height="828.403" rx="89.5571" fill="white" fill-opacity="0.03"/>
</g>
<path fill-rule="evenodd" clip-rule="evenodd" d="M1526.08 496.517V738.845C1526.08 788.306 1485.98 828.403 1436.52 828.403H259.075C324.754 494.039 619.453 241.804 973.065 241.804C1194.38 241.804 1392.62 340.61 1526.08 496.517Z" fill="white" fill-opacity="0.06"/>
<path d="M169.363 649.687H147.01L145.577 668.817H146.078C147.32 667.145 148.705 665.831 150.234 664.876C151.762 663.873 153.864 663.372 156.538 663.372C158.736 663.372 160.742 663.73 162.557 664.446C164.419 665.115 166.02 666.118 167.357 667.455C168.694 668.793 169.745 670.417 170.509 672.327C171.274 674.19 171.656 676.339 171.656 678.775C171.656 681.211 171.274 683.456 170.509 685.51C169.745 687.516 168.623 689.26 167.142 690.74C165.661 692.173 163.87 693.296 161.769 694.108C159.667 694.92 157.279 695.326 154.604 695.326C152.502 695.326 150.616 695.087 148.944 694.609C147.32 694.131 145.863 693.487 144.574 692.675C143.332 691.863 142.233 690.955 141.278 689.952C140.323 688.949 139.463 687.898 138.699 686.8L143.212 683.361C143.881 684.364 144.55 685.271 145.218 686.083C145.935 686.895 146.747 687.612 147.654 688.233C148.562 688.806 149.589 689.26 150.735 689.594C151.881 689.928 153.219 690.095 154.747 690.095C158.186 690.095 160.813 689.164 162.628 687.301C164.491 685.438 165.422 682.859 165.422 679.564V678.99C165.422 675.695 164.491 673.115 162.628 671.253C160.766 669.39 158.091 668.458 154.604 668.458C152.216 668.458 150.353 668.864 149.016 669.676C147.726 670.488 146.532 671.491 145.433 672.686L140.346 671.969L142.138 644.457H169.363V649.687ZM182.518 694.466V689.236H196.847V648.899H196.345L183.736 660.649L180.225 656.852L193.48 644.457H202.865V689.236H216.048V694.466H182.518ZM246.469 694.466V684.65H221.823V679.349L243.46 644.457H252.201V679.707H259.652V684.65H252.201V694.466H246.469ZM227.197 679.707H246.469V649.114H246.183L227.197 679.707ZM300.82 694.466H267.434V688.304L284.127 673.259C286.563 671.062 288.569 668.817 290.145 666.524C291.721 664.184 292.51 661.724 292.51 659.145V658.285C292.51 655.276 291.721 652.959 290.145 651.335C288.569 649.663 286.229 648.828 283.124 648.828C280.067 648.828 277.703 649.616 276.031 651.192C274.407 652.72 273.189 654.774 272.377 657.353L267.004 655.347C267.481 653.867 268.126 652.434 268.938 651.049C269.798 649.616 270.873 648.35 272.162 647.251C273.452 646.153 275.004 645.269 276.819 644.6C278.682 643.932 280.831 643.597 283.267 643.597C285.751 643.597 287.948 643.956 289.859 644.672C291.817 645.389 293.441 646.392 294.731 647.681C296.068 648.971 297.071 650.499 297.74 652.267C298.456 654.034 298.814 655.968 298.814 658.07C298.814 659.98 298.528 661.772 297.955 663.443C297.429 665.115 296.665 666.715 295.662 668.244C294.707 669.772 293.537 671.277 292.151 672.757C290.814 674.19 289.309 675.623 287.638 677.056L273.667 689.236H300.82V694.466ZM359.371 675.695V669.676H380.148V675.695H359.371ZM455.678 695.326C452.765 695.326 450.209 694.967 448.012 694.251C445.815 693.487 443.976 692.46 442.495 691.17C441.062 689.88 439.964 688.352 439.2 686.585C438.483 684.818 438.125 682.907 438.125 680.853C438.125 677.414 439.056 674.692 440.919 672.686C442.782 670.679 445.242 669.27 448.299 668.458V667.885C445.624 666.978 443.498 665.521 441.922 663.515C440.394 661.461 439.629 659.001 439.629 656.135C439.629 652.314 441.039 649.281 443.857 647.036C446.675 644.744 450.615 643.597 455.678 643.597C460.741 643.597 464.682 644.744 467.5 647.036C470.318 649.281 471.727 652.314 471.727 656.135C471.727 659.001 470.939 661.461 469.362 663.515C467.834 665.521 465.732 666.978 463.058 667.885V668.458C466.115 669.27 468.574 670.679 470.437 672.686C472.3 674.692 473.231 677.414 473.231 680.853C473.231 682.907 472.849 684.818 472.085 686.585C471.369 688.352 470.27 689.88 468.789 691.17C467.309 692.46 465.47 693.487 463.273 694.251C461.123 694.967 458.592 695.326 455.678 695.326ZM455.678 690.239C459.213 690.239 461.983 689.451 463.989 687.874C465.995 686.298 466.998 684.077 466.998 681.211V679.635C466.998 676.769 465.995 674.548 463.989 672.972C462.031 671.396 459.26 670.608 455.678 670.608C452.096 670.608 449.302 671.396 447.296 672.972C445.337 674.548 444.358 676.769 444.358 679.635V681.211C444.358 684.077 445.361 686.298 447.367 687.874C449.373 689.451 452.144 690.239 455.678 690.239ZM455.678 665.736C458.926 665.736 461.386 665.043 463.058 663.658C464.777 662.273 465.637 660.291 465.637 657.712V656.709C465.637 654.129 464.753 652.147 462.986 650.762C461.266 649.377 458.831 648.684 455.678 648.684C452.526 648.684 450.066 649.377 448.299 650.762C446.579 652.147 445.719 654.129 445.719 656.709V657.712C445.719 660.291 446.555 662.273 448.227 663.658C449.946 665.043 452.43 665.736 455.678 665.736ZM483.234 694.466V689.236H497.563V648.899H497.061L484.452 660.649L480.941 656.852L494.195 644.457H503.581V689.236H516.764V694.466H483.234ZM541.669 695.326C539.042 695.326 536.677 694.896 534.576 694.036C532.474 693.128 530.683 691.863 529.202 690.239C527.769 688.567 526.647 686.537 525.835 684.149C525.071 681.761 524.689 679.086 524.689 676.125C524.689 672.399 525.238 668.912 526.336 665.664C527.483 662.369 528.916 659.383 530.635 656.709C532.402 653.986 534.361 651.598 536.51 649.544C538.659 647.442 540.761 645.747 542.815 644.457H550.553C547.83 646.415 545.394 648.326 543.245 650.189C541.143 652.052 539.28 654.01 537.656 656.064C536.032 658.07 534.671 660.243 533.573 662.583C532.474 664.876 531.567 667.479 530.85 670.393L531.208 670.536C532.402 668.482 533.979 666.787 535.937 665.449C537.895 664.064 540.427 663.372 543.531 663.372C545.729 663.372 547.735 663.73 549.55 664.446C551.365 665.163 552.941 666.19 554.278 667.527C555.616 668.864 556.643 670.488 557.359 672.399C558.123 674.31 558.505 676.435 558.505 678.775C558.505 681.211 558.099 683.456 557.287 685.51C556.475 687.516 555.329 689.26 553.848 690.74C552.415 692.173 550.648 693.296 548.547 694.108C546.493 694.92 544.2 695.326 541.669 695.326ZM541.597 690.239C545.036 690.239 547.687 689.307 549.55 687.445C551.46 685.582 552.415 682.955 552.415 679.564V678.99C552.415 675.599 551.46 672.972 549.55 671.109C547.687 669.247 545.036 668.315 541.597 668.315C538.158 668.315 535.483 669.247 533.573 671.109C531.71 672.972 530.778 675.599 530.778 678.99V679.564C530.778 682.955 531.71 685.582 533.573 687.445C535.483 689.307 538.158 690.239 541.597 690.239ZM590.145 694.466V684.65H565.499V679.349L587.136 644.457H595.876V679.707H603.328V684.65H595.876V694.466H590.145ZM570.872 679.707H590.145V649.114H589.858L570.872 679.707ZM660.087 675.695V669.676H680.864V675.695H660.087ZM756.466 695.326C753.839 695.326 751.474 694.896 749.373 694.036C747.271 693.128 745.48 691.863 743.999 690.239C742.566 688.567 741.444 686.537 740.632 684.149C739.868 681.761 739.486 679.086 739.486 676.125C739.486 672.399 740.035 668.912 741.134 665.664C742.28 662.369 743.713 659.383 745.432 656.709C747.2 653.986 749.158 651.598 751.307 649.544C753.457 647.442 755.558 645.747 757.612 644.457H765.35C762.627 646.415 760.191 648.326 758.042 650.189C755.94 652.052 754.077 654.01 752.454 656.064C750.83 658.07 749.468 660.243 748.37 662.583C747.271 664.876 746.364 667.479 745.647 670.393L746.005 670.536C747.2 668.482 748.776 666.787 750.734 665.449C752.692 664.064 755.224 663.372 758.328 663.372C760.526 663.372 762.532 663.73 764.347 664.446C766.162 665.163 767.738 666.19 769.075 667.527C770.413 668.864 771.44 670.488 772.156 672.399C772.92 674.31 773.302 676.435 773.302 678.775C773.302 681.211 772.896 683.456 772.084 685.51C771.272 687.516 770.126 689.26 768.645 690.74C767.213 692.173 765.445 693.296 763.344 694.108C761.29 694.92 758.997 695.326 756.466 695.326ZM756.394 690.239C759.833 690.239 762.484 689.307 764.347 687.445C766.257 685.582 767.213 682.955 767.213 679.564V678.99C767.213 675.599 766.257 672.972 764.347 671.109C762.484 669.247 759.833 668.315 756.394 668.315C752.955 668.315 750.28 669.247 748.37 671.109C746.507 672.972 745.576 675.599 745.576 678.99V679.564C745.576 682.955 746.507 685.582 748.37 687.445C750.28 689.307 752.955 690.239 756.394 690.239ZM813.754 649.687H791.401L789.968 668.817H790.469C791.711 667.145 793.096 665.831 794.625 664.876C796.153 663.873 798.255 663.372 800.93 663.372C803.127 663.372 805.133 663.73 806.948 664.446C808.811 665.115 810.411 666.118 811.748 667.455C813.086 668.793 814.136 670.417 814.901 672.327C815.665 674.19 816.047 676.339 816.047 678.775C816.047 681.211 815.665 683.456 814.901 685.51C814.136 687.516 813.014 689.26 811.533 690.74C810.053 692.173 808.261 693.296 806.16 694.108C804.058 694.92 801.67 695.326 798.995 695.326C796.894 695.326 795.007 695.087 793.335 694.609C791.711 694.131 790.254 693.487 788.965 692.675C787.723 691.863 786.624 690.955 785.669 689.952C784.714 688.949 783.854 687.898 783.09 686.8L787.604 683.361C788.272 684.364 788.941 685.271 789.61 686.083C790.326 686.895 791.138 687.612 792.046 688.233C792.953 688.806 793.98 689.26 795.126 689.594C796.273 689.928 797.61 690.095 799.139 690.095C802.577 690.095 805.205 689.164 807.02 687.301C808.882 685.438 809.814 682.859 809.814 679.564V678.99C809.814 675.695 808.882 673.115 807.02 671.253C805.157 669.39 802.482 668.458 798.995 668.458C796.607 668.458 794.744 668.864 793.407 669.676C792.117 670.488 790.923 671.491 789.825 672.686L784.738 671.969L786.529 644.457H813.754V649.687ZM859.293 694.466H825.906V688.304L842.599 673.259C845.035 671.062 847.041 668.817 848.618 666.524C850.194 664.184 850.982 661.724 850.982 659.145V658.285C850.982 655.276 850.194 652.959 848.618 651.335C847.041 649.663 844.701 648.828 841.596 648.828C838.54 648.828 836.175 649.616 834.503 651.192C832.88 652.72 831.662 654.774 830.85 657.353L825.476 655.347C825.954 653.867 826.599 652.434 827.411 651.049C828.27 649.616 829.345 648.35 830.635 647.251C831.924 646.153 833.477 645.269 835.292 644.6C837.154 643.932 839.304 643.597 841.74 643.597C844.223 643.597 846.421 643.956 848.331 644.672C850.289 645.389 851.913 646.392 853.203 647.681C854.54 648.971 855.543 650.499 856.212 652.267C856.929 654.034 857.287 655.968 857.287 658.07C857.287 659.98 857 661.772 856.427 663.443C855.902 665.115 855.137 666.715 854.134 668.244C853.179 669.772 852.009 671.277 850.624 672.757C849.286 674.19 847.782 675.623 846.11 677.056L832.139 689.236H859.293V694.466ZM885.344 695.326C882.717 695.326 880.353 694.896 878.251 694.036C876.149 693.128 874.358 691.863 872.878 690.239C871.445 688.567 870.322 686.537 869.51 684.149C868.746 681.761 868.364 679.086 868.364 676.125C868.364 672.399 868.913 668.912 870.012 665.664C871.158 662.369 872.591 659.383 874.31 656.709C876.078 653.986 878.036 651.598 880.185 649.544C882.335 647.442 884.436 645.747 886.49 644.457H894.228C891.505 646.415 889.069 648.326 886.92 650.189C884.819 652.052 882.956 654.01 881.332 656.064C879.708 658.07 878.347 660.243 877.248 662.583C876.149 664.876 875.242 667.479 874.525 670.393L874.884 670.536C876.078 668.482 877.654 666.787 879.612 665.449C881.571 664.064 884.102 663.372 887.207 663.372C889.404 663.372 891.41 663.73 893.225 664.446C895.04 665.163 896.616 666.19 897.954 667.527C899.291 668.864 900.318 670.488 901.034 672.399C901.799 674.31 902.181 676.435 902.181 678.775C902.181 681.211 901.775 683.456 900.963 685.51C900.151 687.516 899.004 689.26 897.524 690.74C896.091 692.173 894.324 693.296 892.222 694.108C890.168 694.92 887.875 695.326 885.344 695.326ZM885.272 690.239C888.711 690.239 891.362 689.307 893.225 687.445C895.135 685.582 896.091 682.955 896.091 679.564V678.99C896.091 675.599 895.135 672.972 893.225 671.109C891.362 669.247 888.711 668.315 885.272 668.315C881.833 668.315 879.159 669.247 877.248 671.109C875.385 672.972 874.454 675.599 874.454 678.99V679.564C874.454 682.955 875.385 685.582 877.248 687.445C879.159 689.307 881.833 690.239 885.272 690.239ZM960.802 675.695V669.676H981.58V675.695H960.802ZM1074.09 694.466H1040.7V688.304L1057.4 673.259C1059.83 671.062 1061.84 668.817 1063.41 666.524C1064.99 664.184 1065.78 661.724 1065.78 659.145V658.285C1065.78 655.276 1064.99 652.959 1063.41 651.335C1061.84 649.663 1059.5 648.828 1056.39 648.828C1053.34 648.828 1050.97 649.616 1049.3 651.192C1047.68 652.72 1046.46 654.774 1045.65 657.353L1040.27 655.347C1040.75 653.867 1041.4 652.434 1042.21 651.049C1043.07 649.616 1044.14 648.35 1045.43 647.251C1046.72 646.153 1048.27 645.269 1050.09 644.6C1051.95 643.932 1054.1 643.597 1056.54 643.597C1059.02 643.597 1061.22 643.956 1063.13 644.672C1065.09 645.389 1066.71 646.392 1068 647.681C1069.34 648.971 1070.34 650.499 1071.01 652.267C1071.73 654.034 1072.08 655.968 1072.08 658.07C1072.08 659.98 1071.8 661.772 1071.22 663.443C1070.7 665.115 1069.93 666.715 1068.93 668.244C1067.98 669.772 1066.81 671.277 1065.42 672.757C1064.08 674.19 1062.58 675.623 1060.91 677.056L1046.94 689.236H1074.09V694.466ZM1114.47 649.687H1092.12L1090.68 668.817H1091.19C1092.43 667.145 1093.81 665.831 1095.34 664.876C1096.87 663.873 1098.97 663.372 1101.65 663.372C1103.84 663.372 1105.85 663.73 1107.66 664.446C1109.53 665.115 1111.13 666.118 1112.46 667.455C1113.8 668.793 1114.85 670.417 1115.62 672.327C1116.38 674.19 1116.76 676.339 1116.76 678.775C1116.76 681.211 1116.38 683.456 1115.62 685.51C1114.85 687.516 1113.73 689.26 1112.25 690.74C1110.77 692.173 1108.98 693.296 1106.88 694.108C1104.77 694.92 1102.39 695.326 1099.71 695.326C1097.61 695.326 1095.72 695.087 1094.05 694.609C1092.43 694.131 1090.97 693.487 1089.68 692.675C1088.44 691.863 1087.34 690.955 1086.39 689.952C1085.43 688.949 1084.57 687.898 1083.81 686.8L1088.32 683.361C1088.99 684.364 1089.66 685.271 1090.33 686.083C1091.04 686.895 1091.85 687.612 1092.76 688.233C1093.67 688.806 1094.7 689.26 1095.84 689.594C1096.99 689.928 1098.33 690.095 1099.85 690.095C1103.29 690.095 1105.92 689.164 1107.74 687.301C1109.6 685.438 1110.53 682.859 1110.53 679.564V678.99C1110.53 675.695 1109.6 673.115 1107.74 671.253C1105.87 669.39 1103.2 668.458 1099.71 668.458C1097.32 668.458 1095.46 668.864 1094.12 669.676C1092.83 670.488 1091.64 671.491 1090.54 672.686L1085.45 671.969L1087.24 644.457H1114.47V649.687ZM1143.1 695.326C1140.47 695.326 1138.11 694.896 1136.01 694.036C1133.91 693.128 1132.11 691.863 1130.63 690.239C1129.2 688.567 1128.08 686.537 1127.27 684.149C1126.5 681.761 1126.12 679.086 1126.12 676.125C1126.12 672.399 1126.67 668.912 1127.77 665.664C1128.91 662.369 1130.35 659.383 1132.07 656.709C1133.83 653.986 1135.79 651.598 1137.94 649.544C1140.09 647.442 1142.19 645.747 1144.25 644.457H1151.98C1149.26 646.415 1146.83 648.326 1144.68 650.189C1142.57 652.052 1140.71 654.01 1139.09 656.064C1137.46 658.07 1136.1 660.243 1135 662.583C1133.91 664.876 1133 667.479 1132.28 670.393L1132.64 670.536C1133.83 668.482 1135.41 666.787 1137.37 665.449C1139.33 664.064 1141.86 663.372 1144.96 663.372C1147.16 663.372 1149.17 663.73 1150.98 664.446C1152.8 665.163 1154.37 666.19 1155.71 667.527C1157.05 668.864 1158.07 670.488 1158.79 672.399C1159.56 674.31 1159.94 676.435 1159.94 678.775C1159.94 681.211 1159.53 683.456 1158.72 685.51C1157.91 687.516 1156.76 689.26 1155.28 690.74C1153.85 692.173 1152.08 693.296 1149.98 694.108C1147.92 694.92 1145.63 695.326 1143.1 695.326ZM1143.03 690.239C1146.47 690.239 1149.12 689.307 1150.98 687.445C1152.89 685.582 1153.85 682.955 1153.85 679.564V678.99C1153.85 675.599 1152.89 672.972 1150.98 671.109C1149.12 669.247 1146.47 668.315 1143.03 668.315C1139.59 668.315 1136.91 669.247 1135 671.109C1133.14 672.972 1132.21 675.599 1132.21 678.99V679.564C1132.21 682.955 1133.14 685.582 1135 687.445C1136.91 689.307 1139.59 690.239 1143.03 690.239ZM1183.84 665.664C1187.33 665.664 1189.93 664.9 1191.65 663.372C1193.42 661.795 1194.3 659.789 1194.3 657.353V656.852C1194.3 654.177 1193.44 652.171 1191.72 650.834C1190.05 649.496 1187.85 648.828 1185.13 648.828C1182.45 648.828 1180.28 649.425 1178.61 650.619C1176.98 651.765 1175.65 653.293 1174.6 655.204L1170.08 651.765C1170.7 650.762 1171.47 649.783 1172.38 648.828C1173.28 647.824 1174.33 646.941 1175.53 646.177C1176.77 645.412 1178.18 644.791 1179.76 644.314C1181.38 643.836 1183.22 643.597 1185.27 643.597C1187.42 643.597 1189.43 643.884 1191.29 644.457C1193.15 644.983 1194.78 645.795 1196.16 646.893C1197.55 647.944 1198.62 649.257 1199.39 650.834C1200.2 652.41 1200.6 654.201 1200.6 656.207C1200.6 657.831 1200.34 659.288 1199.82 660.577C1199.34 661.867 1198.65 662.989 1197.74 663.945C1196.88 664.9 1195.85 665.712 1194.66 666.381C1193.46 667.049 1192.2 667.551 1190.86 667.885V668.172C1192.25 668.458 1193.58 668.936 1194.87 669.605C1196.16 670.226 1197.31 671.062 1198.31 672.112C1199.31 673.115 1200.1 674.357 1200.68 675.838C1201.3 677.271 1201.61 678.919 1201.61 680.781C1201.61 682.931 1201.18 684.913 1200.32 686.728C1199.51 688.495 1198.34 690.024 1196.81 691.313C1195.33 692.555 1193.51 693.534 1191.36 694.251C1189.26 694.967 1186.92 695.326 1184.34 695.326C1182.14 695.326 1180.18 695.087 1178.47 694.609C1176.79 694.131 1175.29 693.487 1173.95 692.675C1172.66 691.863 1171.52 690.955 1170.51 689.952C1169.56 688.949 1168.7 687.898 1167.93 686.8L1172.45 683.361C1173.12 684.364 1173.81 685.271 1174.52 686.083C1175.24 686.895 1176.05 687.612 1176.96 688.233C1177.92 688.806 1178.99 689.26 1180.18 689.594C1181.38 689.928 1182.76 690.095 1184.34 690.095C1187.87 690.095 1190.57 689.283 1192.44 687.659C1194.35 686.036 1195.3 683.719 1195.3 680.71V680.137C1195.3 677.175 1194.37 674.883 1192.51 673.259C1190.69 671.635 1187.95 670.823 1184.27 670.823H1178.32V665.664H1183.84Z" fill="white"/>
<path d="M173.017 586.998H136.907V581.624L165.208 542.219H138.125V536.989H171.799V542.362L143.427 581.767H173.017V586.998ZM211.893 586.998C209.648 586.998 208.048 586.424 207.092 585.278C206.137 584.132 205.54 582.699 205.301 580.979H204.943C204.131 583.129 202.817 584.824 201.002 586.066C199.235 587.26 196.847 587.857 193.838 587.857C189.969 587.857 186.888 586.854 184.596 584.848C182.303 582.842 181.157 580.096 181.157 576.609C181.157 573.17 182.398 570.519 184.882 568.656C187.414 566.793 191.474 565.862 197.062 565.862H204.943V562.208C204.943 559.486 204.179 557.456 202.65 556.118C201.122 554.733 198.949 554.041 196.13 554.041C193.647 554.041 191.617 554.542 190.041 555.545C188.464 556.5 187.199 557.814 186.243 559.486L182.375 556.62C182.852 555.665 183.497 554.733 184.309 553.826C185.121 552.918 186.124 552.13 187.318 551.461C188.512 550.745 189.873 550.196 191.402 549.813C192.93 549.384 194.626 549.169 196.489 549.169C200.835 549.169 204.274 550.267 206.806 552.464C209.385 554.661 210.675 557.718 210.675 561.635V581.982H215.833V586.998H211.893ZM194.841 583.057C196.322 583.057 197.659 582.89 198.853 582.556C200.095 582.173 201.17 581.696 202.077 581.123C202.985 580.502 203.677 579.785 204.155 578.973C204.68 578.113 204.943 577.206 204.943 576.251V570.161H197.062C193.623 570.161 191.115 570.638 189.539 571.594C187.963 572.549 187.175 573.934 187.175 575.749V577.254C187.175 579.164 187.843 580.621 189.181 581.624C190.566 582.579 192.453 583.057 194.841 583.057ZM252.846 550.028H258.578L240.236 595.094C239.806 596.144 239.329 597.052 238.803 597.816C238.278 598.628 237.657 599.273 236.941 599.75C236.224 600.276 235.364 600.658 234.361 600.897C233.358 601.183 232.164 601.327 230.779 601.327H225.334V596.455H233.931L238.087 586.281L223.185 550.028H229.06L235.293 565.504L240.809 579.546H241.096L246.613 565.504L252.846 550.028ZM269.368 586.998V550.028H275.1V556.047H275.386C275.768 555.139 276.246 554.279 276.819 553.467C277.392 552.608 278.085 551.867 278.897 551.246C279.757 550.625 280.76 550.124 281.906 549.742C283.052 549.36 284.39 549.169 285.918 549.169C289.787 549.169 292.892 550.411 295.232 552.894C297.573 555.33 298.743 558.793 298.743 563.283V586.998H293.011V564.286C293.011 560.895 292.271 558.387 290.79 556.763C289.309 555.091 287.136 554.255 284.27 554.255C283.124 554.255 282.002 554.399 280.903 554.685C279.804 554.972 278.825 555.402 277.966 555.975C277.106 556.548 276.413 557.288 275.888 558.196C275.362 559.104 275.1 560.154 275.1 561.348V586.998H269.368ZM380.864 561.922V546.088H380.291L369.759 571.809L359.227 546.088H358.654V561.922V586.998H353.137V536.989H360.875L369.688 559.056H370.118L378.93 536.989H386.381V586.998H380.864V561.922ZM426.69 586.998C424.445 586.998 422.845 586.424 421.889 585.278C420.934 584.132 420.337 582.699 420.098 580.979H419.74C418.928 583.129 417.614 584.824 415.799 586.066C414.032 587.26 411.644 587.857 408.635 587.857C404.766 587.857 401.685 586.854 399.393 584.848C397.1 582.842 395.954 580.096 395.954 576.609C395.954 573.17 397.195 570.519 399.679 568.656C402.211 566.793 406.271 565.862 411.859 565.862H419.74V562.208C419.74 559.486 418.976 557.456 417.447 556.118C415.919 554.733 413.746 554.041 410.928 554.041C408.444 554.041 406.414 554.542 404.838 555.545C403.261 556.5 401.996 557.814 401.04 559.486L397.172 556.62C397.649 555.665 398.294 554.733 399.106 553.826C399.918 552.918 400.921 552.13 402.115 551.461C403.309 550.745 404.671 550.196 406.199 549.813C407.727 549.384 409.423 549.169 411.286 549.169C415.632 549.169 419.071 550.267 421.603 552.464C424.182 554.661 425.472 557.718 425.472 561.635V581.982H430.63V586.998H426.69ZM409.638 583.057C411.119 583.057 412.456 582.89 413.65 582.556C414.892 582.173 415.967 581.696 416.874 581.123C417.782 580.502 418.474 579.785 418.952 578.973C419.477 578.113 419.74 577.206 419.74 576.251V570.161H411.859C408.42 570.161 405.912 570.638 404.336 571.594C402.76 572.549 401.972 573.934 401.972 575.749V577.254C401.972 579.164 402.641 580.621 403.978 581.624C405.363 582.579 407.25 583.057 409.638 583.057ZM439.916 582.126H452.812V538.852H439.916V533.98H458.544V582.126H471.44V586.998H439.916V582.126ZM500.93 541.861C499.258 541.861 498.088 541.526 497.42 540.858C496.751 540.141 496.417 539.258 496.417 538.207V537.061C496.417 536.01 496.751 535.15 497.42 534.481C498.088 533.765 499.258 533.407 500.93 533.407C502.602 533.407 503.772 533.765 504.441 534.481C505.11 535.15 505.444 536.01 505.444 537.061V538.207C505.444 539.258 505.11 540.141 504.441 540.858C503.772 541.526 502.602 541.861 500.93 541.861ZM484.738 582.126H498.064V554.9H484.738V550.028H503.796V582.126H516.262V586.998H484.738V582.126ZM527.626 533.98H533.358V567.438H533.644L540.092 561.348L552.415 550.028H559.437L544.105 564.501L561.228 586.998H554.135L539.734 567.797L533.358 573.6V586.998H527.626V533.98Z" fill="white"/>
<path opacity="0.9" d="M160.98 206.454C157.494 206.454 154.317 205.881 151.452 204.735C148.586 203.588 146.126 201.917 144.072 199.72C142.018 197.522 140.418 194.824 139.272 191.624C138.173 188.376 137.624 184.674 137.624 180.519C137.624 176.363 138.245 172.685 139.487 169.485C140.776 166.237 142.496 163.515 144.645 161.318C146.795 159.12 149.302 157.449 152.168 156.302C155.034 155.156 158.091 154.583 161.339 154.583C163.393 154.583 165.231 154.726 166.855 155.013C168.527 155.299 169.96 155.634 171.154 156.016C172.396 156.398 173.399 156.78 174.163 157.162C174.927 157.544 175.453 157.831 175.739 158.022L173.733 163.754C173.303 163.467 172.683 163.156 171.871 162.822C171.059 162.488 170.127 162.153 169.076 161.819C168.073 161.485 166.951 161.222 165.709 161.031C164.515 160.792 163.297 160.673 162.055 160.673C159.428 160.673 157.064 161.126 154.962 162.034C152.861 162.942 151.069 164.255 149.589 165.975C148.108 167.694 146.962 169.796 146.15 172.279C145.386 174.715 145.003 177.462 145.003 180.519C145.003 183.48 145.338 186.179 146.006 188.615C146.723 191.051 147.774 193.152 149.159 194.919C150.544 196.639 152.264 197.976 154.317 198.932C156.419 199.887 158.855 200.364 161.625 200.364C164.825 200.364 167.476 200.03 169.578 199.361C171.68 198.693 173.256 198.096 174.307 197.57L176.098 203.302C175.763 203.541 175.166 203.851 174.307 204.233C173.447 204.568 172.372 204.902 171.082 205.236C169.793 205.571 168.288 205.857 166.569 206.096C164.849 206.335 162.987 206.454 160.98 206.454ZM197.385 167.336C197.958 167.336 198.603 167.384 199.319 167.479C200.083 167.527 200.824 167.622 201.54 167.766C202.257 167.861 202.902 167.981 203.475 168.124C204.096 168.219 204.549 168.315 204.836 168.41L203.69 174.214C203.164 174.023 202.281 173.808 201.039 173.569C199.845 173.282 198.292 173.139 196.382 173.139C195.14 173.139 193.898 173.282 192.656 173.569C191.462 173.808 190.674 173.975 190.292 174.07V205.38H183.629V169.7C185.205 169.127 187.163 168.602 189.504 168.124C191.844 167.598 194.471 167.336 197.385 167.336ZM209.188 186.823C209.188 183.528 209.666 180.662 210.621 178.226C211.576 175.742 212.842 173.688 214.418 172.064C215.994 170.44 217.809 169.222 219.863 168.41C221.917 167.598 224.019 167.192 226.168 167.192C231.183 167.192 235.028 168.769 237.703 171.921C240.378 175.026 241.715 179.778 241.715 186.179C241.715 186.465 241.715 186.847 241.715 187.325C241.715 187.755 241.691 188.161 241.643 188.543H216.138C216.424 192.412 217.547 195.349 219.505 197.355C221.463 199.361 224.52 200.364 228.676 200.364C231.016 200.364 232.974 200.173 234.55 199.791C236.174 199.361 237.392 198.955 238.204 198.573L239.136 204.162C238.324 204.592 236.891 205.045 234.837 205.523C232.831 206.001 230.538 206.239 227.959 206.239C224.711 206.239 221.893 205.762 219.505 204.806C217.164 203.803 215.23 202.442 213.702 200.723C212.173 199.003 211.027 196.973 210.263 194.633C209.546 192.245 209.188 189.641 209.188 186.823ZM234.765 183.169C234.813 180.16 234.049 177.701 232.473 175.79C230.944 173.832 228.819 172.853 226.096 172.853C224.568 172.853 223.207 173.163 222.012 173.784C220.866 174.357 219.887 175.121 219.075 176.077C218.263 177.032 217.618 178.13 217.141 179.372C216.711 180.614 216.424 181.88 216.281 183.169H234.765ZM275.359 176.005C274.547 175.336 273.377 174.691 271.849 174.07C270.32 173.45 268.649 173.139 266.834 173.139C264.923 173.139 263.275 173.497 261.89 174.214C260.553 174.882 259.454 175.838 258.594 177.08C257.735 178.274 257.114 179.707 256.732 181.378C256.349 183.05 256.158 184.841 256.158 186.752C256.158 191.098 257.233 194.466 259.382 196.854C261.532 199.194 264.398 200.364 267.98 200.364C269.795 200.364 271.299 200.293 272.494 200.15C273.735 199.958 274.691 199.767 275.359 199.576V176.005ZM275.359 150.929L282.022 149.783V204.305C280.494 204.735 278.536 205.165 276.147 205.595C273.759 206.024 271.013 206.239 267.908 206.239C265.042 206.239 262.463 205.786 260.171 204.878C257.878 203.971 255.92 202.681 254.296 201.009C252.672 199.338 251.406 197.308 250.498 194.919C249.639 192.483 249.209 189.761 249.209 186.752C249.209 183.886 249.567 181.259 250.283 178.871C251.048 176.483 252.146 174.429 253.579 172.709C255.012 170.99 256.755 169.652 258.809 168.697C260.911 167.742 263.299 167.264 265.974 167.264C268.123 167.264 270.01 167.551 271.634 168.124C273.306 168.697 274.547 169.246 275.359 169.772V150.929ZM300.139 205.38H293.476V168.124H300.139V205.38ZM296.772 161.389C295.578 161.389 294.551 161.007 293.691 160.243C292.879 159.431 292.473 158.356 292.473 157.019C292.473 155.681 292.879 154.631 293.691 153.866C294.551 153.054 295.578 152.648 296.772 152.648C297.966 152.648 298.969 153.054 299.781 153.866C300.641 154.631 301.071 155.681 301.071 157.019C301.071 158.356 300.641 159.431 299.781 160.243C298.969 161.007 297.966 161.389 296.772 161.389ZM317.831 168.124H331.945V173.712H317.831V190.907C317.831 192.77 317.974 194.322 318.261 195.564C318.547 196.758 318.977 197.714 319.55 198.43C320.123 199.099 320.84 199.576 321.7 199.863C322.559 200.15 323.562 200.293 324.709 200.293C326.715 200.293 328.315 200.078 329.509 199.648C330.751 199.17 331.611 198.836 332.088 198.645L333.378 204.162C332.709 204.496 331.539 204.902 329.867 205.38C328.195 205.905 326.285 206.168 324.136 206.168C321.604 206.168 319.502 205.857 317.831 205.236C316.207 204.568 314.893 203.588 313.89 202.299C312.887 201.009 312.171 199.433 311.741 197.57C311.359 195.66 311.168 193.463 311.168 190.979V157.735L317.831 156.589V168.124Z" fill="white"/>
<g clip-path="url(#clip0_234_325)">
<circle cx="1270.84" cy="214.673" r="67.1678" fill="#EB001B"/>
<circle cx="1351.44" cy="214.673" r="67.1678" fill="#F79E1B"/>
<path fill-rule="evenodd" clip-rule="evenodd" d="M1311.14 268.408C1329.69 257.682 1342.16 237.635 1342.16 214.674C1342.16 191.713 1329.69 171.665 1311.14 160.939C1292.6 171.665 1280.13 191.713 1280.13 214.674C1280.13 237.635 1292.6 257.682 1311.14 268.408Z" fill="#FF5F00"/>
</g>
<rect y="85" width="1553" height="857.627" rx="92.7164" fill="url(#paint1_linear_234_325)"/>
<g filter="url(#filter1_b_234_325)">
<rect y="85" width="1553" height="857.627" rx="92.7164" fill="white" fill-opacity="0.03"/>
</g>
<path fill-rule="evenodd" clip-rule="evenodd" d="M208.52 85L92.7164 85C41.5106 85 0 126.511 0 177.716V849.91C0 901.116 41.5106 942.627 92.7164 942.627H1460.28C1506.76 942.627 1545.26 908.425 1551.96 863.816C1543.92 620.271 1309.24 281.924 208.52 85Z" fill="white" fill-opacity="0.06"/>
<path d="M139.297 803.107V792.946H113.782V787.457L136.182 751.335H145.231V787.828H152.945V792.946H145.231V803.107H139.297ZM119.345 787.828H139.297V756.156H139.001L119.345 787.828ZM192.895 756.749H169.753L168.27 776.553H168.789C170.075 774.823 171.509 773.463 173.091 772.474C174.674 771.435 176.849 770.916 179.618 770.916C181.893 770.916 183.97 771.287 185.849 772.029C187.777 772.721 189.434 773.76 190.819 775.144C192.203 776.529 193.291 778.21 194.082 780.188C194.873 782.116 195.269 784.342 195.269 786.864C195.269 789.385 194.873 791.709 194.082 793.836C193.291 795.913 192.129 797.718 190.596 799.25C189.063 800.734 187.209 801.896 185.033 802.737C182.857 803.577 180.385 803.997 177.616 803.997C175.44 803.997 173.487 803.75 171.756 803.256C170.075 802.761 168.567 802.094 167.232 801.253C165.946 800.412 164.809 799.473 163.82 798.435C162.831 797.396 161.94 796.308 161.149 795.171L165.822 791.611C166.515 792.649 167.207 793.589 167.899 794.429C168.641 795.27 169.481 796.012 170.421 796.654C171.36 797.248 172.424 797.718 173.61 798.064C174.797 798.41 176.182 798.583 177.764 798.583C181.324 798.583 184.044 797.619 185.923 795.69C187.852 793.762 188.816 791.091 188.816 787.679V787.086C188.816 783.674 187.852 781.004 185.923 779.075C183.995 777.147 181.226 776.183 177.616 776.183C175.143 776.183 173.215 776.603 171.83 777.444C170.495 778.284 169.259 779.323 168.122 780.559L162.855 779.817L164.71 751.335H192.895V756.749ZM237.37 756.749H214.228L212.745 776.553H213.264C214.55 774.823 215.984 773.463 217.566 772.474C219.148 771.435 221.324 770.916 224.093 770.916C226.368 770.916 228.445 771.287 230.324 772.029C232.252 772.721 233.909 773.76 235.293 775.144C236.678 776.529 237.766 778.21 238.557 780.188C239.348 782.116 239.744 784.342 239.744 786.864C239.744 789.385 239.348 791.709 238.557 793.836C237.766 795.913 236.604 797.718 235.071 799.25C233.538 800.734 231.684 801.896 229.508 802.737C227.332 803.577 224.86 803.997 222.091 803.997C219.915 803.997 217.962 803.75 216.231 803.256C214.55 802.761 213.042 802.094 211.706 801.253C210.421 800.412 209.283 799.473 208.294 798.435C207.305 797.396 206.415 796.308 205.624 795.171L210.297 791.611C210.989 792.649 211.682 793.589 212.374 794.429C213.116 795.27 213.956 796.012 214.896 796.654C215.835 797.248 216.899 797.718 218.085 798.064C219.272 798.41 220.657 798.583 222.239 798.583C225.799 798.583 228.519 797.619 230.398 795.69C232.327 793.762 233.291 791.091 233.291 787.679V787.086C233.291 783.674 232.327 781.004 230.398 779.075C228.47 777.147 225.7 776.183 222.091 776.183C219.618 776.183 217.69 776.603 216.305 777.444C214.97 778.284 213.734 779.323 212.597 780.559L207.33 779.817L209.185 751.335H237.37V756.749ZM267.011 803.997C264.291 803.997 261.843 803.552 259.667 802.662C257.492 801.723 255.637 800.412 254.104 798.731C252.621 797 251.459 794.899 250.618 792.426C249.827 789.954 249.432 787.185 249.432 784.119C249.432 780.262 250 776.652 251.138 773.29C252.324 769.878 253.808 766.787 255.588 764.018C257.418 761.2 259.445 758.727 261.67 756.601C263.895 754.425 266.071 752.67 268.197 751.335H276.208C273.39 753.362 270.868 755.34 268.642 757.268C266.467 759.197 264.538 761.224 262.857 763.351C261.176 765.427 259.766 767.677 258.629 770.1C257.492 772.474 256.552 775.169 255.81 778.185L256.181 778.334C257.418 776.207 259.049 774.452 261.077 773.067C263.104 771.633 265.725 770.916 268.939 770.916C271.214 770.916 273.291 771.287 275.17 772.029C277.049 772.771 278.681 773.834 280.065 775.218C281.45 776.603 282.513 778.284 283.255 780.262C284.046 782.24 284.441 784.441 284.441 786.864C284.441 789.385 284.021 791.709 283.18 793.836C282.34 795.913 281.153 797.718 279.62 799.25C278.137 800.734 276.307 801.896 274.131 802.737C272.005 803.577 269.631 803.997 267.011 803.997ZM266.936 798.731C270.497 798.731 273.241 797.767 275.17 795.838C277.148 793.91 278.137 791.19 278.137 787.679V787.086C278.137 783.575 277.148 780.855 275.17 778.927C273.241 776.998 270.497 776.034 266.936 776.034C263.376 776.034 260.607 776.998 258.629 778.927C256.701 780.855 255.736 783.575 255.736 787.086V787.679C255.736 791.19 256.701 793.91 258.629 795.838C260.607 797.767 263.376 798.731 266.936 798.731ZM345.131 783.674V777.444H366.641V783.674H345.131ZM459.745 756.749H436.603L435.119 776.553H435.639C436.924 774.823 438.358 773.463 439.941 772.474C441.523 771.435 443.699 770.916 446.468 770.916C448.743 770.916 450.819 771.287 452.698 772.029C454.627 772.721 456.283 773.76 457.668 775.144C459.053 776.529 460.14 778.21 460.932 780.188C461.723 782.116 462.118 784.342 462.118 786.864C462.118 789.385 461.723 791.709 460.932 793.836C460.14 795.913 458.978 797.718 457.446 799.25C455.913 800.734 454.058 801.896 451.883 802.737C449.707 803.577 447.234 803.997 444.465 803.997C442.289 803.997 440.336 803.75 438.606 803.256C436.924 802.761 435.416 802.094 434.081 801.253C432.795 800.412 431.658 799.473 430.669 798.435C429.68 797.396 428.79 796.308 427.999 795.171L432.672 791.611C433.364 792.649 434.056 793.589 434.749 794.429C435.49 795.27 436.331 796.012 437.27 796.654C438.21 797.248 439.273 797.718 440.46 798.064C441.647 798.41 443.031 798.583 444.614 798.583C448.174 798.583 450.894 797.619 452.773 795.69C454.701 793.762 455.665 791.091 455.665 787.679V787.086C455.665 783.674 454.701 781.004 452.773 779.075C450.844 777.147 448.075 776.183 444.465 776.183C441.993 776.183 440.064 776.603 438.68 777.444C437.345 778.284 436.108 779.323 434.971 780.559L429.705 779.817L431.559 751.335H459.745V756.749ZM489.385 803.997C486.665 803.997 484.218 803.552 482.042 802.662C479.866 801.723 478.012 800.412 476.479 798.731C474.996 797 473.834 794.899 472.993 792.426C472.202 789.954 471.806 787.185 471.806 784.119C471.806 780.262 472.375 776.652 473.512 773.29C474.699 769.878 476.182 766.787 477.963 764.018C479.792 761.2 481.82 758.727 484.045 756.601C486.27 754.425 488.446 752.67 490.572 751.335H498.583C495.764 753.362 493.242 755.34 491.017 757.268C488.841 759.197 486.913 761.224 485.231 763.351C483.55 765.427 482.141 767.677 481.004 770.1C479.866 772.474 478.927 775.169 478.185 778.185L478.556 778.334C479.792 776.207 481.424 774.452 483.451 773.067C485.479 771.633 488.1 770.916 491.314 770.916C493.588 770.916 495.665 771.287 497.544 772.029C499.423 772.771 501.055 773.834 502.44 775.218C503.824 776.603 504.887 778.284 505.629 780.262C506.42 782.24 506.816 784.441 506.816 786.864C506.816 789.385 506.396 791.709 505.555 793.836C504.714 795.913 503.528 797.718 501.995 799.25C500.511 800.734 498.682 801.896 496.506 802.737C494.379 803.577 492.006 803.997 489.385 803.997ZM489.311 798.731C492.871 798.731 495.616 797.767 497.544 795.838C499.522 793.91 500.511 791.19 500.511 787.679V787.086C500.511 783.575 499.522 780.855 497.544 778.927C495.616 776.998 492.871 776.034 489.311 776.034C485.751 776.034 482.982 776.998 481.004 778.927C479.075 780.855 478.111 783.575 478.111 787.086V787.679C478.111 791.19 479.075 793.91 481.004 795.838C482.982 797.767 485.751 798.731 489.311 798.731ZM539.571 803.107V792.946H514.056V787.457L536.456 751.335H545.505V787.828H553.219V792.946H545.505V803.107H539.571ZM519.619 787.828H539.571V756.156H539.275L519.619 787.828ZM595.84 803.107H561.275V796.729L578.558 781.152C581.079 778.878 583.156 776.553 584.788 774.18C586.42 771.757 587.236 769.21 587.236 766.54V765.65C587.236 762.535 586.42 760.136 584.788 758.455C583.156 756.724 580.733 755.859 577.519 755.859C574.354 755.859 571.907 756.675 570.176 758.307C568.495 759.889 567.234 762.016 566.393 764.686L560.83 762.609C561.325 761.076 561.992 759.593 562.833 758.158C563.723 756.675 564.835 755.365 566.171 754.227C567.506 753.09 569.113 752.175 570.992 751.483C572.92 750.791 575.146 750.444 577.667 750.444C580.239 750.444 582.513 750.815 584.491 751.557C586.519 752.299 588.2 753.337 589.535 754.672C590.92 756.007 591.958 757.59 592.65 759.419C593.392 761.249 593.763 763.252 593.763 765.427C593.763 767.405 593.466 769.26 592.873 770.99C592.329 772.721 591.538 774.378 590.499 775.96C589.51 777.542 588.299 779.1 586.865 780.633C585.48 782.116 583.923 783.6 582.192 785.083L567.728 797.693H595.84V803.107ZM656.456 783.674V777.444H677.966V783.674H656.456ZM756.16 803.997C752.996 803.997 750.276 803.404 748.001 802.217C745.727 800.981 743.848 799.226 742.364 796.951C740.881 794.676 739.793 791.883 739.101 788.569C738.408 785.256 738.062 781.474 738.062 777.221C738.062 773.018 738.408 769.26 739.101 765.947C739.793 762.584 740.881 759.766 742.364 757.491C743.848 755.216 745.727 753.486 748.001 752.299C750.276 751.063 752.996 750.444 756.16 750.444C759.325 750.444 762.045 751.063 764.319 752.299C766.594 753.486 768.473 755.216 769.957 757.491C771.44 759.766 772.528 762.584 773.22 765.947C773.913 769.26 774.259 773.018 774.259 777.221C774.259 781.474 773.913 785.256 773.22 788.569C772.528 791.883 771.44 794.676 769.957 796.951C768.473 799.226 766.594 800.981 764.319 802.217C762.045 803.404 759.325 803.997 756.16 803.997ZM756.16 798.583C758.237 798.583 760.017 798.187 761.501 797.396C762.984 796.555 764.171 795.393 765.061 793.91C766.001 792.426 766.693 790.646 767.138 788.569C767.583 786.443 767.806 784.07 767.806 781.449V772.993C767.806 770.422 767.583 768.073 767.138 765.947C766.693 763.82 766.001 762.016 765.061 760.532C764.171 759.049 762.984 757.911 761.501 757.12C760.017 756.279 758.237 755.859 756.16 755.859C754.084 755.859 752.303 756.279 750.82 757.12C749.337 757.911 748.125 759.049 747.186 760.532C746.295 762.016 745.628 763.82 745.183 765.947C744.738 768.073 744.515 770.422 744.515 772.993V781.449C744.515 784.07 744.738 786.443 745.183 788.569C745.628 790.646 746.295 792.426 747.186 793.91C748.125 795.393 749.337 796.555 750.82 797.396C752.303 798.187 754.084 798.583 756.16 798.583ZM756.16 781.597C754.43 781.597 753.218 781.251 752.526 780.559C751.883 779.867 751.562 779.026 751.562 778.037V776.405C751.562 775.416 751.883 774.575 752.526 773.883C753.218 773.191 754.43 772.845 756.16 772.845C757.891 772.845 759.078 773.191 759.721 773.883C760.413 774.575 760.759 775.416 760.759 776.405V778.037C760.759 779.026 760.413 779.867 759.721 780.559C759.078 781.251 757.891 781.597 756.16 781.597ZM800.71 803.997C797.99 803.997 795.542 803.552 793.366 802.662C791.191 801.723 789.336 800.412 787.803 798.731C786.32 797 785.158 794.899 784.317 792.426C783.526 789.954 783.131 787.185 783.131 784.119C783.131 780.262 783.699 776.652 784.836 773.29C786.023 769.878 787.507 766.787 789.287 764.018C791.116 761.2 793.144 758.727 795.369 756.601C797.594 754.425 799.77 752.67 801.896 751.335H809.907C807.088 753.362 804.567 755.34 802.341 757.268C800.166 759.197 798.237 761.224 796.556 763.351C794.875 765.427 793.465 767.677 792.328 770.1C791.191 772.474 790.251 775.169 789.509 778.185L789.88 778.334C791.116 776.207 792.748 774.452 794.776 773.067C796.803 771.633 799.424 770.916 802.638 770.916C804.913 770.916 806.99 771.287 808.869 772.029C810.748 772.771 812.379 773.834 813.764 775.218C815.149 776.603 816.212 778.284 816.953 780.262C817.745 782.24 818.14 784.441 818.14 786.864C818.14 789.385 817.72 791.709 816.879 793.836C816.039 795.913 814.852 797.718 813.319 799.25C811.836 800.734 810.006 801.896 807.83 802.737C805.704 803.577 803.33 803.997 800.71 803.997ZM800.635 798.731C804.196 798.731 806.94 797.767 808.869 795.838C810.847 793.91 811.836 791.19 811.836 787.679V787.086C811.836 783.575 810.847 780.855 808.869 778.927C806.94 776.998 804.196 776.034 800.635 776.034C797.075 776.034 794.306 776.998 792.328 778.927C790.399 780.855 789.435 783.575 789.435 787.086V787.679C789.435 791.19 790.399 793.91 792.328 795.838C794.306 797.767 797.075 798.731 800.635 798.731ZM862.615 770.323C862.615 774.18 862.022 777.814 860.835 781.226C859.698 784.589 858.214 787.679 856.385 790.498C854.555 793.267 852.528 795.74 850.302 797.915C848.127 800.042 845.976 801.772 843.849 803.107H835.839C838.657 801.08 841.154 799.102 843.33 797.174C845.555 795.245 847.509 793.242 849.19 791.166C850.871 789.039 852.28 786.789 853.418 784.416C854.555 781.993 855.495 779.273 856.236 776.257L855.865 776.108C854.58 778.235 852.923 780.015 850.896 781.449C848.918 782.833 846.322 783.526 843.108 783.526C840.833 783.526 838.731 783.155 836.803 782.413C834.924 781.671 833.292 780.608 831.907 779.224C830.572 777.839 829.509 776.183 828.718 774.254C827.976 772.276 827.605 770.051 827.605 767.578C827.605 765.057 828.001 762.757 828.792 760.68C829.633 758.554 830.82 756.749 832.352 755.266C833.885 753.733 835.715 752.546 837.841 751.705C840.017 750.865 842.415 750.444 845.036 750.444C847.756 750.444 850.204 750.914 852.379 751.854C854.555 752.744 856.385 754.054 857.868 755.785C859.401 757.466 860.563 759.543 861.354 762.016C862.195 764.488 862.615 767.257 862.615 770.323ZM845.11 778.408C848.671 778.408 851.415 777.444 853.343 775.515C855.321 773.587 856.31 770.867 856.31 767.356V766.763C856.31 763.252 855.321 760.532 853.343 758.604C851.415 756.675 848.671 755.711 845.11 755.711C841.55 755.711 838.781 756.675 836.803 758.604C834.874 760.532 833.91 763.252 833.91 766.763V767.356C833.91 770.867 834.874 773.587 836.803 775.515C838.781 777.444 841.55 778.408 845.11 778.408ZM904.494 756.749H881.352L879.869 776.553H880.388C881.673 774.823 883.107 773.463 884.69 772.474C886.272 771.435 888.448 770.916 891.217 770.916C893.492 770.916 895.568 771.287 897.448 772.029C899.376 772.721 901.033 773.76 902.417 775.144C903.802 776.529 904.89 778.21 905.681 780.188C906.472 782.116 906.868 784.342 906.868 786.864C906.868 789.385 906.472 791.709 905.681 793.836C904.89 795.913 903.728 797.718 902.195 799.25C900.662 800.734 898.807 801.896 896.632 802.737C894.456 803.577 891.983 803.997 889.214 803.997C887.039 803.997 885.085 803.75 883.355 803.256C881.673 802.761 880.165 802.094 878.83 801.253C877.544 800.412 876.407 799.473 875.418 798.435C874.429 797.396 873.539 796.308 872.748 795.171L877.421 791.611C878.113 792.649 878.805 793.589 879.498 794.429C880.239 795.27 881.08 796.012 882.02 796.654C882.959 797.248 884.022 797.718 885.209 798.064C886.396 798.41 887.78 798.583 889.363 798.583C892.923 798.583 895.643 797.619 897.522 795.69C899.45 793.762 900.414 791.091 900.414 787.679V787.086C900.414 783.674 899.45 781.004 897.522 779.075C895.593 777.147 892.824 776.183 889.214 776.183C886.742 776.183 884.813 776.603 883.429 777.444C882.094 778.284 880.857 779.323 879.72 780.559L874.454 779.817L876.308 751.335H904.494V756.749ZM967.78 783.674V777.444H989.29V783.674H967.78ZM1082.39 756.749H1059.25L1057.77 776.553H1058.29C1059.57 774.823 1061.01 773.463 1062.59 772.474C1064.17 771.435 1066.35 770.916 1069.12 770.916C1071.39 770.916 1073.47 771.287 1075.35 772.029C1077.28 772.721 1078.93 773.76 1080.32 775.144C1081.7 776.529 1082.79 778.21 1083.58 780.188C1084.37 782.116 1084.77 784.342 1084.77 786.864C1084.77 789.385 1084.37 791.709 1083.58 793.836C1082.79 795.913 1081.63 797.718 1080.09 799.25C1078.56 800.734 1076.71 801.896 1074.53 802.737C1072.36 803.577 1069.88 803.997 1067.11 803.997C1064.94 803.997 1062.99 803.75 1061.25 803.256C1059.57 802.761 1058.06 802.094 1056.73 801.253C1055.44 800.412 1054.31 799.473 1053.32 798.435C1052.33 797.396 1051.44 796.308 1050.65 795.171L1055.32 791.611C1056.01 792.649 1056.71 793.589 1057.4 794.429C1058.14 795.27 1058.98 796.012 1059.92 796.654C1060.86 797.248 1061.92 797.718 1063.11 798.064C1064.3 798.41 1065.68 798.583 1067.26 798.583C1070.82 798.583 1073.54 797.619 1075.42 795.69C1077.35 793.762 1078.31 791.091 1078.31 787.679V787.086C1078.31 783.674 1077.35 781.004 1075.42 779.075C1073.49 777.147 1070.72 776.183 1067.11 776.183C1064.64 776.183 1062.71 776.603 1061.33 777.444C1059.99 778.284 1058.76 779.323 1057.62 780.559L1052.35 779.817L1054.21 751.335H1082.39V756.749ZM1096.01 803.107V797.693H1110.85V755.933H1110.33L1097.27 768.098L1093.64 764.167L1107.36 751.335H1117.08V797.693H1130.73V803.107H1096.01ZM1156.51 803.997C1153.79 803.997 1151.34 803.552 1149.17 802.662C1146.99 801.723 1145.14 800.412 1143.6 798.731C1142.12 797 1140.96 794.899 1140.12 792.426C1139.33 789.954 1138.93 787.185 1138.93 784.119C1138.93 780.262 1139.5 776.652 1140.64 773.29C1141.82 769.878 1143.31 766.787 1145.09 764.018C1146.92 761.2 1148.94 758.727 1151.17 756.601C1153.39 754.425 1155.57 752.67 1157.7 751.335H1165.71C1162.89 753.362 1160.37 755.34 1158.14 757.268C1155.96 759.197 1154.04 761.224 1152.36 763.351C1150.67 765.427 1149.26 767.677 1148.13 770.1C1146.99 772.474 1146.05 775.169 1145.31 778.185L1145.68 778.334C1146.92 776.207 1148.55 774.452 1150.58 773.067C1152.6 771.633 1155.22 770.916 1158.44 770.916C1160.71 770.916 1162.79 771.287 1164.67 772.029C1166.55 772.771 1168.18 773.834 1169.56 775.218C1170.95 776.603 1172.01 778.284 1172.75 780.262C1173.54 782.24 1173.94 784.441 1173.94 786.864C1173.94 789.385 1173.52 791.709 1172.68 793.836C1171.84 795.913 1170.65 797.718 1169.12 799.25C1167.63 800.734 1165.81 801.896 1163.63 802.737C1161.5 803.577 1159.13 803.997 1156.51 803.997ZM1156.43 798.731C1159.99 798.731 1162.74 797.767 1164.67 795.838C1166.65 793.91 1167.63 791.19 1167.63 787.679V787.086C1167.63 783.575 1166.65 780.855 1164.67 778.927C1162.74 776.998 1159.99 776.034 1156.43 776.034C1152.87 776.034 1150.11 776.998 1148.13 778.927C1146.2 780.855 1145.23 783.575 1145.23 787.086V787.679C1145.23 791.19 1146.2 793.91 1148.13 795.838C1150.11 797.767 1152.87 798.731 1156.43 798.731ZM1200.91 803.997C1197.89 803.997 1195.25 803.627 1192.97 802.885C1190.7 802.094 1188.79 801.031 1187.26 799.695C1185.78 798.36 1184.64 796.778 1183.85 794.948C1183.11 793.119 1182.74 791.141 1182.74 789.015C1182.74 785.454 1183.7 782.636 1185.63 780.559C1187.56 778.482 1190.1 777.023 1193.27 776.183V775.589C1190.5 774.65 1188.3 773.141 1186.67 771.065C1185.09 768.938 1184.29 766.392 1184.29 763.425C1184.29 759.469 1185.75 756.329 1188.67 754.005C1191.59 751.631 1195.67 750.444 1200.91 750.444C1206.15 750.444 1210.23 751.631 1213.15 754.005C1216.07 756.329 1217.52 759.469 1217.52 763.425C1217.52 766.392 1216.71 768.938 1215.08 771.065C1213.49 773.141 1211.32 774.65 1208.55 775.589V776.183C1211.71 777.023 1214.26 778.482 1216.19 780.559C1218.12 782.636 1219.08 785.454 1219.08 789.015C1219.08 791.141 1218.69 793.119 1217.9 794.948C1217.15 796.778 1216.02 798.36 1214.48 799.695C1212.95 801.031 1211.05 802.094 1208.77 802.885C1206.55 803.627 1203.93 803.997 1200.91 803.997ZM1200.91 798.731C1204.57 798.731 1207.44 797.915 1209.51 796.283C1211.59 794.652 1212.63 792.352 1212.63 789.385V787.754C1212.63 784.787 1211.59 782.487 1209.51 780.855C1207.49 779.224 1204.62 778.408 1200.91 778.408C1197.2 778.408 1194.31 779.224 1192.23 780.855C1190.2 782.487 1189.19 784.787 1189.19 787.754V789.385C1189.19 792.352 1190.23 794.652 1192.31 796.283C1194.38 797.915 1197.25 798.731 1200.91 798.731ZM1200.91 773.364C1204.27 773.364 1206.82 772.647 1208.55 771.213C1210.33 769.779 1211.22 767.727 1211.22 765.057V764.018C1211.22 761.348 1210.3 759.296 1208.48 757.862C1206.7 756.428 1204.17 755.711 1200.91 755.711C1197.65 755.711 1195.1 756.428 1193.27 757.862C1191.49 759.296 1190.6 761.348 1190.6 764.018V765.057C1190.6 767.727 1191.46 769.779 1193.2 771.213C1194.98 772.647 1197.55 773.364 1200.91 773.364Z" fill="white"/>
<path d="M117.935 691.848V640.075H150.572V645.49H124.166V662.92H148.346V668.335H124.166V691.848H117.935ZM192.45 691.848C190.126 691.848 188.47 691.255 187.481 690.068C186.492 688.881 185.874 687.398 185.626 685.617H185.256C184.415 687.843 183.055 689.598 181.176 690.884C179.346 692.12 176.874 692.738 173.759 692.738C169.753 692.738 166.564 691.7 164.19 689.623C161.817 687.546 160.63 684.703 160.63 681.093C160.63 677.532 161.916 674.788 164.487 672.86C167.108 670.931 171.311 669.967 177.097 669.967H185.256V666.184C185.256 663.365 184.464 661.264 182.882 659.879C181.3 658.445 179.05 657.728 176.132 657.728C173.561 657.728 171.459 658.247 169.828 659.286C168.196 660.275 166.885 661.635 165.896 663.365L161.891 660.398C162.386 659.41 163.053 658.445 163.894 657.506C164.734 656.566 165.773 655.75 167.009 655.058C168.245 654.316 169.655 653.748 171.237 653.352C172.819 652.907 174.575 652.684 176.503 652.684C181.003 652.684 184.563 653.822 187.184 656.096C189.854 658.371 191.189 661.536 191.189 665.591V686.656H196.53V691.848H192.45ZM174.797 687.768C176.33 687.768 177.715 687.595 178.951 687.249C180.237 686.854 181.349 686.359 182.289 685.766C183.228 685.123 183.945 684.381 184.44 683.541C184.984 682.65 185.256 681.711 185.256 680.722V674.417H177.097C173.536 674.417 170.94 674.912 169.308 675.901C167.677 676.89 166.861 678.324 166.861 680.203V681.76C166.861 683.738 167.553 685.246 168.937 686.285C170.372 687.274 172.325 687.768 174.797 687.768ZM224.835 645.119C223.104 645.119 221.893 644.773 221.201 644.08C220.508 643.339 220.162 642.424 220.162 641.336V640.149C220.162 639.061 220.508 638.171 221.201 637.479C221.893 636.737 223.104 636.366 224.835 636.366C226.566 636.366 227.777 636.737 228.47 637.479C229.162 638.171 229.508 639.061 229.508 640.149V641.336C229.508 642.424 229.162 643.339 228.47 644.08C227.777 644.773 226.566 645.119 224.835 645.119ZM208.072 686.804H221.868V658.618H208.072V653.575H227.802V686.804H240.708V691.848H208.072V686.804ZM250.989 691.848V686.137L275.689 658.618H251.805V653.575H282.142V659.286L257.442 686.804H282.884V691.848H250.989ZM369.312 691.848L364.935 677.087H346.763L342.387 691.848H335.934L351.807 640.075H360.04L375.913 691.848H369.312ZM356.183 646.676H355.515L348.246 671.673H363.452L356.183 646.676ZM385.378 691.848V653.575H391.312V659.805H391.609C392.004 658.866 392.499 657.975 393.092 657.135C393.686 656.245 394.403 655.478 395.243 654.836C396.133 654.193 397.172 653.673 398.358 653.278C399.545 652.882 400.93 652.684 402.512 652.684C406.518 652.684 409.732 653.97 412.155 656.541C414.578 659.063 415.789 662.648 415.789 667.297V691.848H409.855V668.335C409.855 664.824 409.089 662.228 407.556 660.547C406.023 658.816 403.773 657.951 400.806 657.951C399.619 657.951 398.457 658.099 397.32 658.396C396.183 658.693 395.169 659.138 394.279 659.731C393.389 660.324 392.672 661.091 392.128 662.03C391.584 662.97 391.312 664.058 391.312 665.294V691.848H385.378ZM424.809 653.575H430.076L434.452 686.656H435.119L441.647 653.575H448.174L454.701 686.656H455.369L459.745 653.575H464.863L459.003 691.848H451.289L445.207 659.805H444.614L438.383 691.848H430.669L424.809 653.575ZM503.775 691.848C501.451 691.848 499.794 691.255 498.805 690.068C497.816 688.881 497.198 687.398 496.951 685.617H496.58C495.739 687.843 494.379 689.598 492.5 690.884C490.671 692.12 488.198 692.738 485.083 692.738C481.078 692.738 477.888 691.7 475.515 689.623C473.141 687.546 471.954 684.703 471.954 681.093C471.954 677.532 473.24 674.788 475.811 672.86C478.432 670.931 482.635 669.967 488.421 669.967H496.58V666.184C496.58 663.365 495.789 661.264 494.206 659.879C492.624 658.445 490.374 657.728 487.457 657.728C484.885 657.728 482.784 658.247 481.152 659.286C479.52 660.275 478.21 661.635 477.221 663.365L473.215 660.398C473.71 659.41 474.377 658.445 475.218 657.506C476.059 656.566 477.097 655.75 478.333 655.058C479.57 654.316 480.979 653.748 482.561 653.352C484.144 652.907 485.899 652.684 487.828 652.684C492.327 652.684 495.888 653.822 498.508 656.096C501.179 658.371 502.514 661.536 502.514 665.591V686.656H507.854V691.848H503.775ZM486.122 687.768C487.654 687.768 489.039 687.595 490.275 687.249C491.561 686.854 492.674 686.359 493.613 685.766C494.553 685.123 495.27 684.381 495.764 683.541C496.308 682.65 496.58 681.711 496.58 680.722V674.417H488.421C484.861 674.417 482.265 674.912 480.633 675.901C479.001 676.89 478.185 678.324 478.185 680.203V681.76C478.185 683.738 478.877 685.246 480.262 686.285C481.696 687.274 483.649 687.768 486.122 687.768ZM517.245 686.804H528.445V658.618H517.245V653.575H534.379V663.217H534.75C535.541 660.201 537.025 657.852 539.201 656.171C541.426 654.44 544.244 653.575 547.656 653.575H552.997V659.508H545.802C542.39 659.508 539.621 660.497 537.495 662.475C535.418 664.453 534.379 667.049 534.379 670.264V686.804H549.214V691.848H517.245V686.804Z" fill="white"/>
<path opacity="0.9" d="M139.742 298.916C136.132 298.916 132.844 298.322 129.877 297.135C126.91 295.949 124.364 294.218 122.237 291.943C120.111 289.669 118.455 286.875 117.268 283.562C116.13 280.199 115.562 276.367 115.562 272.065C115.562 267.763 116.205 263.955 117.49 260.642C118.825 257.28 120.606 254.461 122.831 252.186C125.056 249.912 127.652 248.181 130.619 246.994C133.586 245.808 136.751 245.214 140.113 245.214C142.239 245.214 144.143 245.363 145.824 245.659C147.555 245.956 149.039 246.302 150.275 246.698C151.561 247.093 152.599 247.489 153.39 247.884C154.181 248.28 154.725 248.577 155.022 248.775L152.945 254.708C152.5 254.412 151.857 254.09 151.017 253.744C150.176 253.398 149.212 253.052 148.124 252.706C147.085 252.36 145.923 252.088 144.638 251.89C143.401 251.643 142.141 251.519 140.855 251.519C138.135 251.519 135.687 251.989 133.512 252.928C131.336 253.868 129.482 255.228 127.949 257.008C126.416 258.788 125.229 260.964 124.388 263.535C123.597 266.057 123.202 268.9 123.202 272.065C123.202 275.131 123.548 277.925 124.24 280.446C124.982 282.968 126.07 285.144 127.504 286.974C128.938 288.754 130.718 290.138 132.844 291.127C135.02 292.116 137.542 292.611 140.41 292.611C143.723 292.611 146.467 292.265 148.643 291.572C150.819 290.88 152.451 290.262 153.538 289.718L155.393 295.652C155.047 295.899 154.429 296.221 153.538 296.616C152.648 296.962 151.536 297.308 150.201 297.655C148.866 298.001 147.308 298.297 145.528 298.545C143.748 298.792 141.819 298.916 139.742 298.916ZM177.431 258.417C178.024 258.417 178.692 258.466 179.434 258.565C180.225 258.615 180.991 258.714 181.733 258.862C182.475 258.961 183.142 259.085 183.736 259.233C184.378 259.332 184.848 259.431 185.145 259.53L183.958 265.538C183.414 265.34 182.499 265.117 181.214 264.87C179.978 264.573 178.37 264.425 176.392 264.425C175.107 264.425 173.821 264.573 172.535 264.87C171.299 265.117 170.483 265.29 170.088 265.389V297.803H163.19V260.865C164.821 260.271 166.849 259.727 169.272 259.233C171.695 258.689 174.415 258.417 177.431 258.417ZM189.65 278.592C189.65 275.18 190.145 272.213 191.134 269.691C192.123 267.12 193.433 264.994 195.065 263.312C196.697 261.631 198.576 260.37 200.702 259.53C202.828 258.689 205.004 258.269 207.229 258.269C212.422 258.269 216.402 259.901 219.171 263.164C221.94 266.378 223.325 271.298 223.325 277.925C223.325 278.221 223.325 278.617 223.325 279.111C223.325 279.556 223.3 279.977 223.251 280.372H196.845C197.142 284.378 198.304 287.419 200.331 289.496C202.359 291.572 205.523 292.611 209.825 292.611C212.248 292.611 214.276 292.413 215.908 292.017C217.589 291.572 218.85 291.152 219.69 290.757L220.655 296.542C219.814 296.987 218.331 297.457 216.204 297.951C214.127 298.446 211.754 298.693 209.084 298.693C205.721 298.693 202.804 298.199 200.331 297.21C197.908 296.171 195.906 294.762 194.323 292.982C192.741 291.202 191.554 289.1 190.763 286.677C190.021 284.205 189.65 281.51 189.65 278.592ZM216.13 274.809C216.18 271.694 215.388 269.147 213.757 267.169C212.174 265.142 209.974 264.128 207.155 264.128C205.573 264.128 204.164 264.45 202.927 265.093C201.741 265.686 200.727 266.477 199.886 267.466C199.046 268.455 198.378 269.592 197.884 270.878C197.439 272.164 197.142 273.474 196.993 274.809H216.13ZM258.156 267.392C257.316 266.7 256.104 266.032 254.522 265.389C252.939 264.746 251.209 264.425 249.33 264.425C247.352 264.425 245.646 264.796 244.212 265.538C242.827 266.23 241.69 267.219 240.8 268.505C239.91 269.741 239.267 271.224 238.871 272.955C238.476 274.686 238.278 276.54 238.278 278.518C238.278 283.018 239.39 286.504 241.616 288.976C243.841 291.399 246.808 292.611 250.516 292.611C252.395 292.611 253.953 292.537 255.189 292.388C256.475 292.191 257.464 291.993 258.156 291.795V267.392ZM258.156 241.431L265.054 240.245V296.69C263.472 297.135 261.445 297.58 258.972 298.025C256.5 298.471 253.656 298.693 250.442 298.693C247.475 298.693 244.805 298.223 242.431 297.284C240.058 296.344 238.031 295.009 236.349 293.278C234.668 291.548 233.358 289.446 232.418 286.974C231.528 284.452 231.083 281.633 231.083 278.518C231.083 275.551 231.454 272.831 232.196 270.359C232.987 267.886 234.124 265.76 235.608 263.98C237.091 262.2 238.896 260.815 241.022 259.826C243.198 258.837 245.67 258.343 248.44 258.343C250.665 258.343 252.618 258.64 254.299 259.233C256.03 259.826 257.316 260.395 258.156 260.939V241.431ZM283.81 297.803H276.912V259.233H283.81V297.803ZM280.324 252.261C279.088 252.261 278.025 251.865 277.135 251.074C276.294 250.233 275.874 249.121 275.874 247.736C275.874 246.352 276.294 245.264 277.135 244.472C278.025 243.632 279.088 243.212 280.324 243.212C281.56 243.212 282.599 243.632 283.439 244.472C284.329 245.264 284.775 246.352 284.775 247.736C284.775 249.121 284.329 250.233 283.439 251.074C282.599 251.865 281.56 252.261 280.324 252.261ZM302.126 259.233H316.738V265.018H302.126V282.82C302.126 284.749 302.274 286.356 302.571 287.641C302.868 288.877 303.313 289.866 303.906 290.608C304.499 291.3 305.241 291.795 306.131 292.092C307.021 292.388 308.06 292.537 309.246 292.537C311.323 292.537 312.98 292.314 314.216 291.869C315.502 291.375 316.392 291.028 316.886 290.831L318.221 296.542C317.529 296.888 316.318 297.308 314.587 297.803C312.856 298.347 310.878 298.619 308.653 298.619C306.032 298.619 303.857 298.297 302.126 297.655C300.445 296.962 299.085 295.949 298.046 294.614C297.008 293.278 296.266 291.647 295.821 289.718C295.425 287.74 295.228 285.466 295.228 282.894V248.478L302.126 247.291V259.233Z" fill="white"/>
<g clip-path="url(#clip1_234_325)">
<path d="M1303.7 217.232L1274.57 286.733H1255.57L1241.23 231.26C1240.36 227.848 1239.61 226.597 1236.96 225.16C1232.64 222.814 1225.5 220.617 1219.22 219.244L1219.65 217.232H1250.24C1252.24 217.23 1254.18 217.943 1255.7 219.242C1257.22 220.541 1258.22 222.341 1258.53 224.316L1266.11 264.536L1284.82 217.232H1303.7ZM1378.18 264.045C1378.26 245.696 1352.82 244.686 1352.99 236.49C1353.05 233.995 1355.42 231.344 1360.61 230.667C1366.7 230.089 1372.83 231.165 1378.35 233.782L1381.5 219.04C1376.12 217.019 1370.43 215.973 1364.68 215.953C1346.91 215.953 1334.4 225.41 1334.29 238.937C1334.18 248.941 1343.22 254.514 1350.03 257.851C1357.04 261.254 1359.4 263.442 1359.36 266.483C1359.32 271.156 1353.78 273.205 1348.61 273.289C1339.57 273.428 1334.33 270.85 1330.14 268.903L1326.88 284.127C1331.08 286.056 1338.83 287.743 1346.87 287.817C1365.76 287.817 1378.12 278.49 1378.18 264.045ZM1425.11 286.733H1441.74L1427.23 217.232H1411.88C1410.24 217.217 1408.63 217.695 1407.26 218.604C1405.9 219.514 1404.84 220.812 1404.22 222.332L1377.25 286.733H1396.12L1399.88 276.348H1422.95L1425.11 286.733ZM1405.05 262.107L1414.51 236.007L1419.96 262.107H1405.05ZM1329.4 217.232L1314.53 286.733H1296.55L1311.43 217.232H1329.4Z" fill="white"/>
</g>
<defs>
<filter id="filter0_b_234_325" x="-332.228" y="-358.228" width="2216.54" height="1544.86" filterUnits="userSpaceOnUse" color-interpolation-filters="sRGB">
<feFlood flood-opacity="0" result="BackgroundImageFix"/>
<feGaussianBlur in="BackgroundImageFix" stdDeviation="179.114"/>
<feComposite in2="SourceAlpha" operator="in" result="effect1_backgroundBlur_234_325"/>
<feBlend mode="normal" in="SourceGraphic" in2="effect1_backgroundBlur_234_325" result="shape"/>
</filter>
<filter id="filter1_b_234_325" x="-370.866" y="-285.866" width="2294.73" height="1599.36" filterUnits="userSpaceOnUse" color-interpolation-filters="sRGB">
<feFlood flood-opacity="0" result="BackgroundImageFix"/>
<feGaussianBlur in="BackgroundImageFix" stdDeviation="185.433"/>
<feComposite in2="SourceAlpha" operator="in" result="effect1_backgroundBlur_234_325"/>
<feBlend mode="normal" in="SourceGraphic" in2="effect1_backgroundBlur_234_325" result="shape"/>
</filter>
<linearGradient id="paint0_linear_234_325" x1="-188.937" y1="-89.5571" x2="1736.54" y2="920.199" gradientUnits="userSpaceOnUse">
<stop offset="0.122247" stop-color="#042843"/>
<stop offset="0.878935" stop-color="#726E9E"/>
</linearGradient>
<linearGradient id="paint1_linear_234_325" x1="-222.519" y1="-7.71644" x2="1770.88" y2="1037.66" gradientUnits="userSpaceOnUse">
<stop offset="0.119355" stop-color="#282828"/>
<stop offset="0.843296" stop-color="#0B0B0B"/>
</linearGradient>
<clipPath id="clip0_234_325">
<rect width="214.937" height="214.937" fill="white" transform="translate(1203.68 107.469)"/>
</clipPath>
<clipPath id="clip1_234_325">
<rect width="222.519" height="222.519" fill="white" transform="translate(1219.22 140.63)"/>
</clipPath>
</defs>
</svg>
