<svg width="1858" height="847" viewBox="0 0 1858 847" fill="none" xmlns="http://www.w3.org/2000/svg">
<path d="M402.884 291.738C318.013 291.738 134.609 14.2882 9 8.66153V846.569H1849V84.6217C1798.08 95.875 1781.48 301.249 1723.39 301.249C1655.49 301.249 1510.02 202.535 1452.3 203.985C1370.83 206.031 1273.2 465.509 1201.91 467.246C1130.61 468.984 1051.21 253.422 932.395 253.422C803.391 259.049 738.059 133.215 670.162 133.215C595.476 133.215 470.78 291.738 402.884 291.738Z" fill="url(#paint0_linear_107_198)"/>
<path d="M9 8.66153C134.609 14.323 320.826 293.49 405.697 293.49C473.594 293.49 592.662 133.986 667.349 133.986C735.245 133.986 803.391 260.598 932.395 254.937C1051.21 254.937 1130.61 468.984 1201.91 467.236C1273.2 465.487 1376.45 207.252 1457.93 205.193C1515.64 203.735 1646.06 304.883 1713.95 304.883C1772.04 304.883 1798.08 96.4147 1849 85.0917" stroke="#FF6C10" stroke-width="16.9846" stroke-linecap="round"/>
<path d="M1146.11 350.368C1146.11 333.104 1146.11 324.472 1148.93 317.663C1152.69 308.584 1159.9 301.371 1168.98 297.61C1175.79 294.79 1184.42 294.79 1201.68 294.79V294.79C1218.95 294.79 1227.58 294.79 1234.39 297.61C1243.47 301.371 1250.68 308.584 1254.44 317.663C1257.26 324.472 1257.26 333.104 1257.26 350.369V646.79H1146.11V350.368Z" fill="url(#paint1_linear_107_198)"/>
<line x1="1202.84" y1="114.158" x2="1202.84" y2="336.474" stroke="black" stroke-width="2.31579"/>
<circle cx="1201.68" cy="336.474" r="13.8947" fill="white" stroke="black" stroke-width="9.26316"/>
<rect x="1072" y="3.00006" width="264" height="111.158" rx="27.7895" fill="black"/>
<path d="M1122.1 78.1214H1124.66V74.322C1130.42 73.9376 1134.95 70.7715 1134.95 65.2308V65.2081C1134.95 60.3911 1131.74 57.9261 1125.74 56.5466L1124.66 56.2978V46.8447C1127.57 47.2065 1129.54 48.9026 1129.86 51.526L1129.88 51.7295H1134.59L1134.56 51.3677C1134.2 46.4376 1130.24 43.1584 1124.66 42.7287V38.9294H1122.1V42.7287C1116.38 43.1584 1112.33 46.528 1112.33 51.5486V51.5712C1112.33 56.1621 1115.38 58.7855 1121.17 60.1197L1122.1 60.3233V70.2061C1118.44 69.8216 1116.81 67.8767 1116.38 65.4569L1116.33 65.2081H1111.65L1111.68 65.5248C1112.04 70.681 1116.36 73.8924 1122.1 74.322V78.1214ZM1117.13 51.2772V51.232C1117.13 49.174 1118.84 47.2517 1122.1 46.8447V55.7098C1118.46 54.8504 1117.13 53.3578 1117.13 51.2772ZM1124.7 60.9339C1128.95 61.929 1130.15 63.3085 1130.15 65.5926V65.6152C1130.15 68.035 1128.57 69.9347 1124.66 70.2513V60.9113L1124.7 60.9339ZM1157.21 74.8422H1162.07V68.3517H1166.57V64.1H1162.07V42.2086H1154.75L1140.88 63.9417V68.3517H1157.21V74.8422ZM1145.59 64.1679V64.0322L1157.12 46.2114H1157.26V64.1679H1145.59ZM1183.48 75.385C1190.51 75.385 1195.46 70.7941 1195.46 64.1679V64.1226C1195.46 57.8808 1190.96 53.3804 1184.72 53.3804C1181.51 53.3804 1178.79 54.6243 1177.32 56.8179H1177.21L1178.21 46.4828H1193.56V42.2086H1174.11L1172.51 61.0243H1176.94C1177.37 60.3007 1177.89 59.6674 1178.5 59.1473C1179.81 57.9713 1181.55 57.3833 1183.57 57.3833C1187.61 57.3833 1190.49 60.2102 1190.51 64.2131V64.2583C1190.51 68.3064 1187.64 71.1559 1183.52 71.1559C1179.88 71.1559 1177.21 68.8944 1176.78 65.9544L1176.76 65.7735H1171.92L1171.94 66.0449C1172.39 71.4273 1176.94 75.385 1183.48 75.385ZM1212.64 75.385C1219.67 75.385 1224.62 70.7941 1224.62 64.1679V64.1226C1224.62 57.8808 1220.12 53.3804 1213.88 53.3804C1210.67 53.3804 1207.96 54.6243 1206.49 56.8179H1206.37L1207.37 46.4828H1222.72V42.2086H1203.27L1201.67 61.0243H1206.1C1206.53 60.3007 1207.05 59.6674 1207.66 59.1473C1208.97 57.9713 1210.71 57.3833 1212.73 57.3833C1216.78 57.3833 1219.65 60.2102 1219.67 64.2131V64.2583C1219.67 68.3064 1216.8 71.1559 1212.68 71.1559C1209.04 71.1559 1206.37 68.8944 1205.94 65.9544L1205.92 65.7735H1201.08L1201.1 66.0449C1201.56 71.4273 1206.1 75.385 1212.64 75.385ZM1232.71 75.1814C1234.36 75.1814 1235.67 73.8697 1235.67 72.2188C1235.67 70.5453 1234.36 69.2563 1232.71 69.2563C1231.03 69.2563 1229.72 70.5453 1229.72 72.2188C1229.72 73.8697 1231.03 75.1814 1232.71 75.1814ZM1253.48 75.385C1261.26 75.385 1265.94 68.8944 1265.94 58.5367V58.4915C1265.94 48.1337 1261.26 41.6658 1253.48 41.6658C1245.68 41.6658 1241.02 48.1337 1241.02 58.4915V58.5367C1241.02 68.8944 1245.68 75.385 1253.48 75.385ZM1253.48 71.1559C1248.82 71.1559 1246.13 66.3615 1246.13 58.5367V58.4915C1246.13 50.6666 1248.82 45.9174 1253.48 45.9174C1258.11 45.9174 1260.83 50.6666 1260.83 58.4915V58.5367C1260.83 66.3615 1258.11 71.1559 1253.48 71.1559ZM1283.77 75.385C1291.55 75.385 1296.23 68.8944 1296.23 58.5367V58.4915C1296.23 48.1337 1291.55 41.6658 1283.77 41.6658C1275.97 41.6658 1271.31 48.1337 1271.31 58.4915V58.5367C1271.31 68.8944 1275.97 75.385 1283.77 75.385ZM1283.77 71.1559C1279.11 71.1559 1276.42 66.3615 1276.42 58.5367V58.4915C1276.42 50.6666 1279.11 45.9174 1283.77 45.9174C1288.41 45.9174 1291.12 50.6666 1291.12 58.4915V58.5367C1291.12 66.3615 1288.41 71.1559 1283.77 71.1559Z" fill="white"/>
<defs>
<linearGradient id="paint0_linear_107_198" x1="929" y1="8.66153" x2="929" y2="846.569" gradientUnits="userSpaceOnUse">
<stop stop-color="#FF5C23" stop-opacity="0.76"/>
<stop offset="1" stop-color="#FF5C23" stop-opacity="0"/>
</linearGradient>
<linearGradient id="paint1_linear_107_198" x1="1201.68" y1="190.579" x2="1201.68" y2="646.79" gradientUnits="userSpaceOnUse">
<stop stop-color="#FED3C3"/>
<stop offset="1" stop-color="#FF6C10" stop-opacity="0.22"/>
</linearGradient>
</defs>
</svg>
