<svg width="280" height="120" viewBox="0 0 280 120" fill="none" xmlns="http://www.w3.org/2000/svg">
<path d="M128.131 88V57.2369H142.546C146.237 57.2369 149.05 57.9694 150.984 59.4343C152.917 60.8699 153.884 62.8036 153.884 65.2353C153.884 66.876 153.503 68.2823 152.741 69.4543C151.98 70.5969 150.954 71.4905 149.665 72.1351C148.405 72.7503 147.028 73.0579 145.534 73.0579L146.325 71.4758C148.054 71.4758 149.607 71.7981 150.984 72.4427C152.361 73.0579 153.445 73.9662 154.236 75.1674C155.056 76.3686 155.466 77.8628 155.466 79.65C155.466 82.2869 154.455 84.3377 152.434 85.8026C150.412 87.2675 147.409 88 143.425 88H128.131ZM133.844 83.5174H143.073C145.212 83.5174 146.853 83.1658 147.995 82.4626C149.138 81.7595 149.709 80.6315 149.709 79.0787C149.709 77.5552 149.138 76.4419 147.995 75.7387C146.853 75.0063 145.212 74.64 143.073 74.64H133.405V70.2014H141.93C143.923 70.2014 145.446 69.8498 146.501 69.1466C147.585 68.4435 148.127 67.3888 148.127 65.9824C148.127 64.5468 147.585 63.4774 146.501 62.7743C145.446 62.0711 143.923 61.7196 141.93 61.7196H133.844V83.5174ZM161.036 88V64.5322H166.266V70.9924L165.651 69.1027C166.354 67.5206 167.452 66.3194 168.947 65.499C170.47 64.6787 172.36 64.2685 174.616 64.2685V69.4982C174.381 69.4396 174.162 69.4103 173.957 69.4103C173.752 69.381 173.546 69.3664 173.341 69.3664C171.261 69.3664 169.606 69.9816 168.375 71.2122C167.145 72.4134 166.53 74.2152 166.53 76.6177V88H161.036ZM179.276 88V64.5322H184.769V88H179.276ZM182.045 60.6648C181.019 60.6648 180.17 60.3425 179.496 59.698C178.851 59.0534 178.529 58.277 178.529 57.3688C178.529 56.4312 178.851 55.6548 179.496 55.0396C180.17 54.395 181.019 54.0727 182.045 54.0727C183.07 54.0727 183.905 54.3804 184.55 54.9956C185.224 55.5816 185.56 56.3287 185.56 57.2369C185.56 58.2038 185.238 59.0241 184.594 59.698C183.949 60.3425 183.099 60.6648 182.045 60.6648ZM202.747 88.3076C200.286 88.3076 198.088 87.7949 196.154 86.7695C194.25 85.7147 192.756 84.2791 191.672 82.4626C190.588 80.6462 190.046 78.5806 190.046 76.2661C190.046 73.9222 190.588 71.8567 191.672 70.0695C192.756 68.253 194.25 66.8321 196.154 65.8067C198.088 64.7812 200.286 64.2685 202.747 64.2685C205.032 64.2685 207.039 64.7373 208.767 65.6748C210.525 66.5831 211.858 67.9308 212.767 69.718L208.548 72.179C207.844 71.0657 206.98 70.2453 205.955 69.718C204.959 69.1906 203.875 68.9269 202.703 68.9269C201.355 68.9269 200.139 69.2199 199.055 69.8058C197.971 70.3918 197.121 71.2415 196.506 72.3548C195.891 73.4388 195.583 74.7426 195.583 76.2661C195.583 77.7896 195.891 79.108 196.506 80.2213C197.121 81.3054 197.971 82.1404 199.055 82.7263C200.139 83.3123 201.355 83.6053 202.703 83.6053C203.875 83.6053 204.959 83.3416 205.955 82.8142C206.98 82.2869 207.844 81.4665 208.548 80.3532L212.767 82.8142C211.858 84.5721 210.525 85.9345 208.767 86.9013C207.039 87.8389 205.032 88.3076 202.747 88.3076ZM221.783 82.7703L221.915 75.8706L234.176 64.5322H240.768L230.353 74.9916L227.452 77.4087L221.783 82.7703ZM217.301 88V55.3912H222.794V88H217.301ZM235.011 88L226.442 77.4087L229.913 73.014L241.691 88H235.011ZM245.24 88V55.3912H250.733V88H245.24ZM259.877 96.8334C258.734 96.8334 257.592 96.643 256.449 96.2621C255.306 95.8812 254.354 95.3538 253.592 94.68L255.79 90.6368C256.346 91.1349 256.976 91.5304 257.68 91.8234C258.383 92.1164 259.101 92.2629 259.833 92.2629C260.829 92.2629 261.635 92.0138 262.25 91.5158C262.865 91.0177 263.437 90.1827 263.964 89.0108L265.326 85.9345L265.766 85.2753L274.643 64.5322H279.917L268.93 89.8897C268.198 91.6476 267.377 93.0393 266.469 94.0647C265.59 95.0902 264.594 95.808 263.481 96.2181C262.397 96.6283 261.195 96.8334 259.877 96.8334ZM264.711 88.835L254.12 64.5322H259.833L268.447 84.7919L264.711 88.835Z" fill="black"/>
<path d="M93.0802 91.0701C93.0902 92.6401 92.6202 93.5001 91.2402 94.2801C81.3602 99.9001 71.5202 105.59 61.7102 111.32C60.5502 112 59.6802 112.11 58.4602 111.4C54.6802 109.19 50.9002 107 47.1102 104.81C40.9202 101.23 34.7302 97.6501 28.5602 94.0301C27.7902 93.5701 27.0002 92.3601 26.9902 91.4801C26.9602 89.0501 26.9502 86.6201 26.9302 84.1901C26.9302 84.0901 26.9302 83.9801 26.9302 83.8801C26.9302 78.1301 26.9302 71.4001 26.9302 65.5201C26.9302 60.0201 26.9302 55.2701 26.9302 52.7601C27.7702 53.1101 28.3402 53.2801 28.8402 53.5701C33.3202 56.1501 37.8202 58.7101 42.2702 61.3401C43.3302 61.9601 44.3902 62.5901 45.4502 63.2201C46.1902 63.6701 47.0302 64.7201 47.0402 65.5101C47.0802 67.7101 47.1002 72.1001 47.1102 77.2601C47.1102 78.0301 47.1002 78.8101 47.0902 79.5801C47.0902 79.8001 47.0902 80.0101 47.1202 80.2001C47.2402 81.3101 47.7502 82.0201 48.8602 82.6201C52.1702 84.4101 55.3702 86.4001 58.6902 88.1701C59.3802 88.5401 60.5702 88.5901 61.2402 88.2401C64.7002 86.4001 68.1302 84.4701 71.4402 82.3801C72.2002 81.9001 72.8602 80.6701 72.9002 79.7501C73.0602 76.0701 72.9102 72.3801 73.0002 68.7001C73.0302 67.2401 72.5702 66.3801 71.2702 65.6601C66.7202 63.1301 62.2402 60.4801 57.7402 57.8801C57.5902 57.7901 57.4502 57.7101 57.3002 57.6201C56.2202 56.9601 55.8702 55.5601 56.5002 54.4601C59.1002 49.9601 61.6502 45.5401 64.2502 41.0501C64.8902 39.9501 66.2902 39.5401 67.4002 40.1701C67.4102 40.1701 67.4102 40.1801 67.4202 40.1801C75.3202 44.7401 83.2102 49.3401 91.1502 53.8301C92.6102 54.6501 93.0902 55.5801 93.0802 57.2201C93.0102 68.4901 93.0102 79.7801 93.0802 91.0701Z" fill="url(#paint0_linear_164_321)"/>
<path d="M26.93 65.51C26.93 71.39 26.93 78.12 26.93 83.87C26.91 77.75 26.92 71.63 26.93 65.51Z" fill="url(#paint1_linear_164_321)"/>
<path d="M47.11 50.2801C47.11 50.9201 46.39 51.3001 45.84 50.9801C39.68 47.4201 33.77 44.0201 27.9 40.5501C27.45 40.2801 26.99 39.5601 26.99 39.0501C26.94 32.2301 26.95 16.9601 26.95 8.96012C26.95 8.36012 27.56 7.95012 28.11 8.18012C28.39 8.29012 28.63 8.40012 28.86 8.53012C34.41 11.7201 39.97 14.8901 45.47 18.1801C46.21 18.6301 47.05 19.6801 47.06 20.4701C47.17 27.2801 47.12 43.4801 47.11 50.2801Z" fill="url(#paint2_linear_164_321)"/>
<path d="M47.1301 80.19C47.1101 80 47.1001 79.79 47.1001 79.57C47.1101 78.8 47.1201 78.03 47.1201 77.25C47.1301 78.21 47.1301 79.19 47.1301 80.19Z" fill="url(#paint3_linear_164_321)"/>
<defs>
<linearGradient id="paint0_linear_164_321" x1="26.9332" y1="75.866" x2="93.0795" y2="75.866" gradientUnits="userSpaceOnUse">
<stop stop-color="#FF7800"/>
<stop offset="1" stop-color="#FF1577"/>
</linearGradient>
<linearGradient id="paint1_linear_164_321" x1="26.9207" y1="74.6896" x2="26.9378" y2="74.6896" gradientUnits="userSpaceOnUse">
<stop stop-color="#FF7800"/>
<stop offset="1" stop-color="#FF1577"/>
</linearGradient>
<linearGradient id="paint2_linear_164_321" x1="26.9347" y1="29.6114" x2="92.7703" y2="29.6114" gradientUnits="userSpaceOnUse">
<stop stop-color="#FF7800"/>
<stop offset="1" stop-color="#FF1577"/>
</linearGradient>
<linearGradient id="paint3_linear_164_321" x1="47.0953" y1="78.7213" x2="47.1253" y2="78.7213" gradientUnits="userSpaceOnUse">
<stop stop-color="#FF7800"/>
<stop offset="1" stop-color="#FF1577"/>
</linearGradient>
</defs>
</svg>
