<svg width="120" height="120" viewBox="0 0 120 120" fill="none" xmlns="http://www.w3.org/2000/svg">
<path d="M93.0802 91.0701C93.0902 92.6401 92.6202 93.5001 91.2402 94.2801C81.3602 99.9001 71.5202 105.59 61.7102 111.32C60.5502 112 59.6802 112.11 58.4602 111.4C54.6802 109.19 50.9002 107 47.1102 104.81C40.9202 101.23 34.7302 97.6501 28.5602 94.0301C27.7902 93.5701 27.0002 92.3601 26.9902 91.4801C26.9602 89.0501 26.9502 86.6201 26.9302 84.1901C26.9302 84.0901 26.9302 83.9801 26.9302 83.8801C26.9302 78.1301 26.9302 71.4001 26.9302 65.5201C26.9302 60.0201 26.9302 55.2701 26.9302 52.7601C27.7702 53.1101 28.3402 53.2801 28.8402 53.5701C33.3202 56.1501 37.8202 58.7101 42.2702 61.3401C43.3302 61.9601 44.3902 62.5901 45.4502 63.2201C46.1902 63.6701 47.0302 64.7201 47.0402 65.5101C47.0802 67.7101 47.1002 72.1001 47.1102 77.2601C47.1102 78.0301 47.1002 78.8101 47.0902 79.5801C47.0902 79.8001 47.0902 80.0101 47.1202 80.2001C47.2402 81.3101 47.7502 82.0201 48.8602 82.6201C52.1702 84.4101 55.3702 86.4001 58.6902 88.1701C59.3802 88.5401 60.5702 88.5901 61.2402 88.2401C64.7002 86.4001 68.1302 84.4701 71.4402 82.3801C72.2002 81.9001 72.8602 80.6701 72.9002 79.7501C73.0602 76.0701 72.9102 72.3801 73.0002 68.7001C73.0302 67.2401 72.5702 66.3801 71.2702 65.6601C66.7202 63.1301 62.2402 60.4801 57.7402 57.8801C57.5902 57.7901 57.4502 57.7101 57.3002 57.6201C56.2202 56.9601 55.8702 55.5601 56.5002 54.4601C59.1002 49.9601 61.6502 45.5401 64.2502 41.0501C64.8902 39.9501 66.2902 39.5401 67.4002 40.1701C67.4102 40.1701 67.4102 40.1801 67.4202 40.1801C75.3202 44.7401 83.2102 49.3401 91.1502 53.8301C92.6102 54.6501 93.0902 55.5801 93.0802 57.2201C93.0102 68.4901 93.0102 79.7801 93.0802 91.0701Z" fill="url(#paint0_linear_56_54)"/>
<path d="M26.93 65.51C26.93 71.39 26.93 78.12 26.93 83.87C26.91 77.75 26.92 71.63 26.93 65.51Z" fill="url(#paint1_linear_56_54)"/>
<path d="M47.11 50.2801C47.11 50.9201 46.39 51.3001 45.84 50.9801C39.68 47.4201 33.77 44.0201 27.9 40.5501C27.45 40.2801 26.99 39.5601 26.99 39.0501C26.94 32.2301 26.95 16.9601 26.95 8.96012C26.95 8.36012 27.56 7.95012 28.11 8.18012C28.39 8.29012 28.63 8.40012 28.86 8.53012C34.41 11.7201 39.97 14.8901 45.47 18.1801C46.21 18.6301 47.05 19.6801 47.06 20.4701C47.17 27.2801 47.12 43.4801 47.11 50.2801Z" fill="url(#paint2_linear_56_54)"/>
<path d="M47.1301 80.19C47.1101 80 47.1001 79.79 47.1001 79.57C47.1101 78.8 47.1201 78.03 47.1201 77.25C47.1301 78.21 47.1301 79.19 47.1301 80.19Z" fill="url(#paint3_linear_56_54)"/>
<defs>
<linearGradient id="paint0_linear_56_54" x1="26.9332" y1="75.866" x2="93.0795" y2="75.866" gradientUnits="userSpaceOnUse">
<stop stop-color="#FF7800"/>
<stop offset="1" stop-color="#FF1577"/>
</linearGradient>
<linearGradient id="paint1_linear_56_54" x1="26.9207" y1="74.6896" x2="26.9378" y2="74.6896" gradientUnits="userSpaceOnUse">
<stop stop-color="#FF7800"/>
<stop offset="1" stop-color="#FF1577"/>
</linearGradient>
<linearGradient id="paint2_linear_56_54" x1="26.9347" y1="29.6114" x2="92.7703" y2="29.6114" gradientUnits="userSpaceOnUse">
<stop stop-color="#FF7800"/>
<stop offset="1" stop-color="#FF1577"/>
</linearGradient>
<linearGradient id="paint3_linear_56_54" x1="47.0953" y1="78.7213" x2="47.1253" y2="78.7213" gradientUnits="userSpaceOnUse">
<stop stop-color="#FF7800"/>
<stop offset="1" stop-color="#FF1577"/>
</linearGradient>
</defs>
</svg>
